<?xml version="1.0" encoding="UTF-8"?>
<!DOCTYPE svg PUBLIC "-//W3C//DTD SVG 1.0//EN" "http://www.w3.org/TR/2001/REC-SVG-20010904/DTD/svg10.dtd">
<!-- Creator: CorelDRAW X8 -->
<svg xmlns="http://www.w3.org/2000/svg" xml:space="preserve" width="300mm" height="424.286mm" version="1.0" style="shape-rendering:geometricPrecision; text-rendering:geometricPrecision; image-rendering:optimizeQuality; fill-rule:evenodd; clip-rule:evenodd"
viewBox="0 0 30000 42429"
 xmlns:xlink="http://www.w3.org/1999/xlink">
 <defs>
  <style type="text/css">
   <![CDATA[
    .fil0 {fill:#393185}
   ]]>
  </style>
 </defs>
 <g id="Слой_x0020_1">
  <metadata id="CorelCorpID_0Corel-Layer"/>
  <g id="_2418234295488">
   <path class="fil0" d="M15699 28297c-7,95 -349,911 -990,576 -174,-91 -123,8 -317,-265 -71,-101 -180,-236 -191,-392 -8,-107 78,-66 181,-58 278,22 487,74 782,95 134,10 392,22 535,44zm4833 -2953c-27,-292 290,40 0,0zm-10749 -218l8 132c-171,23 -123,-130 -8,-132zm10974 35l-76 -46c-30,-182 63,-158 156,-77 0,92 -11,95 -80,123zm-5422 582c-6,-6 -74,17 8,-178 123,-294 264,-562 655,-586 78,-5 343,-38 350,59 -33,112 -86,21 -116,190 -40,220 -63,353 -50,576 7,109 64,286 100,377 12,32 32,70 46,121 15,54 16,69 21,124 25,248 209,403 231,1199 12,428 16,251 -63,580 -53,226 -148,489 -291,663 -76,93 -108,85 -158,168 -92,-20 -60,-129 -126,40 -41,105 -48,103 -140,155 -133,76 -190,160 -368,213 -588,176 -1305,-155 -1623,-606 -50,-71 -61,-124 -93,-201 -130,-320 -47,-40 -150,-428 -28,-106 -72,-98 -68,-205 68,21 82,51 180,72 252,53 257,-25 269,170 7,120 -11,45 32,132 115,231 -94,-2 171,326 298,368 834,528 1267,245 92,-60 224,-314 266,-374 125,-178 116,-240 190,-471 64,-202 21,-338 -34,-529 -30,-104 -43,-160 -120,-212 -48,-33 -67,-28 -111,-54 -134,-81 5,-141 -315,28 -190,100 -6,54 -159,204 -124,-31 -102,-71 -172,-147 -69,-74 -191,-175 -200,-377 -12,-262 30,-583 198,-683 122,50 117,165 311,199 335,60 521,-242 346,-476 -106,-141 -197,-105 -302,-192 65,-143 61,-109 101,-126 92,45 5,11 62,85l127 142c47,61 223,72 150,344 -41,150 -130,36 -129,194 144,38 314,-207 313,-370 0,-116 -77,-150 -121,-236 -69,-133 -123,-104 -258,-107 7,-277 -46,-231 139,-448 166,-194 436,-39 392,-275 -368,-50 -597,332 -718,607l-40 68zm-5913 -884c81,-10 192,31 200,137 -59,49 -73,47 -164,40 -21,-51 -48,-112 -36,-177zm11522 50c-73,-86 -132,-141 -41,-283 243,-39 265,240 41,283zm-11534 -265c-87,102 -246,64 -214,-74 19,-82 59,-73 109,-45 122,69 99,67 105,119zm12014 -414c-14,242 -22,283 -232,347 -219,-132 -139,-454 65,-445 92,5 8,10 137,83l30 15zm-12444 -62c66,-29 125,-20 179,29 206,188 -36,302 -130,213 -42,-39 -65,-208 -49,-242zm-289 -379c408,-359 410,405 125,236 -18,-11 -67,-68 -81,-87 -60,-76 -47,-35 -44,-149zm13077 -159c-32,139 -72,347 -228,388 -97,26 -196,-19 -263,-79 -121,-109 -89,-459 100,-479 67,-7 196,1 248,26 60,28 59,49 143,144zm-13304 -207c-42,-280 262,-400 371,-102 41,112 13,211 -111,237 -16,3 -239,8 -260,-135zm6277 2964l-3 110c-195,127 -139,551 -96,646 41,89 104,114 89,227l-578 -38c25,-43 37,-42 40,-109 -25,-11 -7,34 -31,-29 31,-65 122,-486 145,-596 60,-287 351,-743 512,-979 42,-62 110,-166 154,-218l902 -961c125,-121 286,-198 423,-322l300 -260c45,-29 65,-37 114,-72 77,-57 132,-119 200,-172 68,-53 148,-93 224,-149 150,-110 249,-213 419,-326 204,-136 242,-197 406,-339l436 -310c142,-86 274,-217 417,-328 38,-29 66,-55 102,-83l516 -416c58,-56 141,-120 201,-171 85,-73 317,-304 421,-319 103,131 123,290 208,407 246,341 298,1377 243,1629 -77,360 -152,500 -211,743 -39,165 -394,980 -480,1134 -101,183 -152,218 -273,350 -64,72 -63,109 -127,183l-635 648c-287,202 -524,457 -979,636 -233,91 -458,196 -712,240 -118,21 -153,64 -263,63 -119,-169 4,-170 -145,-533 -69,-169 -106,-358 -160,-545 -49,-170 -62,-429 -25,-590 22,-94 73,-155 110,-243 90,-208 82,-53 170,-175 -30,-93 -119,-141 -212,-171 -259,-83 -27,-64 -315,-103 -154,-20 -6,-59 -319,21 -347,89 -496,279 -638,601 -51,114 -80,198 -81,336 -3,256 114,96 90,288 137,2 65,-1 142,38 75,38 80,10 140,46 43,116 -10,224 -144,223 -61,-74 -5,-62 -103,-118 -131,-75 -52,-3 -124,-121 -70,-7 -106,-22 -150,-6l-134 51c-130,39 -95,137 -186,182zm7284 -3440c-82,422 -462,348 -578,263 -150,-110 -205,-203 -133,-450 15,-50 29,-89 61,-126 75,-88 257,-235 376,-186 131,55 318,271 274,499zm-13766 -207c-31,-147 79,-219 224,-209 100,6 122,15 146,86 8,21 47,168 48,186 1,132 -173,300 -311,117 -45,-60 -91,-107 -107,-180zm-148 -641c-69,-437 594,-579 627,-166 13,164 20,290 -244,359 -128,34 -353,0 -383,-193zm12983 -249c-42,-157 32,-264 87,-362 78,-139 150,-104 316,-163 170,-59 192,-3 323,82 172,112 123,77 181,298 36,134 25,264 -61,355 -95,102 -130,146 -305,173 -169,26 -233,-35 -349,-104 -62,-36 -63,-59 -103,-125 -15,-24 -86,-141 -89,-154zm-12256 -621c-52,159 -40,114 -145,210 -83,77 -97,132 -261,94 -222,-52 -295,-205 -253,-463 27,-162 34,-140 135,-218 89,-67 144,-118 273,-59 201,93 348,136 251,436zm8781 5996c34,-40 43,-34 84,-66l-72 -25c-47,70 -61,63 -162,100 -72,27 -136,54 -204,87 -123,61 -64,36 -205,66 -92,20 -105,68 -225,43 -20,-127 47,-110 160,-133 94,-18 165,-49 257,-74 173,-47 323,-104 470,-172 156,-73 273,-146 417,-224 257,-139 544,-364 771,-533 64,-48 96,-100 168,-142 264,-152 595,-611 753,-881 85,-145 151,-261 222,-419l296 -656c80,-246 175,-485 234,-758 139,-652 4,-1671 -290,-2159 -235,-388 -55,-323 31,-174 172,296 260,621 334,950 104,460 87,722 77,1182 -5,200 -198,818 -279,1001 -42,97 -71,115 -109,222 -132,376 -350,701 -565,1051 -161,263 -374,483 -595,709 -319,327 -912,715 -1345,913 -84,38 -118,95 -223,92zm-1863 807c29,174 -398,43 -586,44 -342,3 -246,24 -644,-57 -159,-32 -284,-26 -445,-51 -362,-57 -847,-170 -1204,-284 -358,-115 -751,-234 -1080,-411 -55,-29 -105,-54 -167,-81 -172,-73 -134,-114 -460,-285l-483 -262c-66,-38 -84,-77 -142,-108 -184,-97 -288,-167 -442,-303 -226,-199 -474,-360 -676,-587 -46,-51 -74,-89 -120,-128 -55,-46 -83,-60 -135,-114 -160,-167 -307,-359 -445,-549 -66,-91 -128,-190 -212,-284 -165,-185 -252,-395 -397,-618 -35,-55 -52,-103 -85,-164 -72,-131 -73,-9 -174,-325 -29,-89 -45,-91 -75,-171 -28,-71 -28,-119 -61,-188 -84,-171 -26,-95 -48,-168 -7,-24 -9,-18 -17,-33l-53 -139c-18,-63 -29,-123 -48,-198 -37,-148 -66,-241 -103,-394 -31,-127 -69,-766 -70,-924 -1,-91 2,-158 17,-233 22,-114 -1,-155 110,-162 25,45 -18,218 -17,416 1,311 24,403 39,683l68 430c23,129 26,90 68,179 91,191 111,478 328,872 51,93 32,94 68,181l355 618c56,105 133,215 190,307 65,104 137,162 216,258 38,47 79,91 114,135 71,89 15,79 86,162 37,44 71,67 110,118l615 605c58,46 92,62 142,107l406 319c87,102 14,47 138,109 64,31 84,62 148,101 103,63 200,104 305,171l616 356c95,62 212,128 312,185l471 251 1328 369c150,23 273,55 409,90 146,37 266,9 412,65 157,61 707,92 897,104 158,9 271,-16 421,-14zm-1438 -7216c81,14 80,30 77,114 -90,6 -108,-54 -77,-114zm7355 20c-104,243 -174,390 -494,306 -191,-50 -139,5 -270,-148 -190,-224 25,-471 129,-540 283,-189 248,-98 424,-14 105,51 54,-29 132,78 62,85 130,199 79,318zm-7251 -396c3,4 10,6 10,14 0,7 7,11 7,13 0,95 -68,50 -94,36 11,-68 15,-82 77,-63zm-5995 -163c-6,-40 97,-287 124,-325 52,-70 197,-145 310,-168 103,-22 258,38 312,94 144,152 246,465 56,668 -90,96 -152,123 -327,149 -202,31 -211,-13 -311,-112 -54,-52 -86,-54 -106,-122 -10,-35 -6,-68 -17,-106 -20,-68 -37,-47 -41,-78zm5875 -188c-3,-101 -21,-83 79,-80 -5,80 2,79 -79,80zm-4018 -205c-67,-228 233,-358 394,-60 77,144 -299,382 -394,60zm-906 -145c-3,-35 103,-330 403,-263 197,43 339,256 306,373 -84,296 -428,369 -608,138 -41,-53 -91,-104 -101,-248zm7472 8232c0,-170 71,-98 210,-135l1671 -607c69,-17 54,-16 93,34 13,-82 -33,-71 70,-95 158,-36 42,-4 146,-81 73,-55 194,-103 278,-157l519 -350c521,-360 757,-457 1184,-989l566 -738 325 -543c329,-554 276,-721 368,-936 90,-211 174,-893 176,-1131 7,-922 -294,-1901 -879,-2558 -3,-2 -93,-106 -97,-114 -30,-63 12,-99 71,-49 9,9 78,88 100,110 75,76 36,67 100,128 153,151 259,362 355,536 81,147 221,435 268,602 27,91 60,271 78,356 82,397 191,659 127,1176l-37 352c-16,137 -50,230 -75,364 -81,454 -285,919 -483,1255 -54,90 -85,209 -143,292l-361 508c-178,226 -437,487 -614,689 -105,120 -419,412 -581,498 -106,56 -49,34 -116,110 -102,116 -1186,774 -1344,829 -242,84 -701,332 -909,395 -117,36 -241,50 -350,86 -182,60 -519,172 -716,163zm2816 -8997c-12,52 -64,136 -102,172 -126,121 -523,60 -463,-231 21,-101 180,-240 329,-211l181 91c60,44 72,99 55,179zm-12062 1730c-23,114 -99,50 -217,48 -109,-2 -161,28 -302,13 -231,-23 -505,-225 -633,-381 -201,-245 -96,-79 -186,-330 -49,-138 -91,-265 -69,-426 158,205 726,90 933,19 422,-144 780,-380 1183,-577 257,-126 1145,-370 1392,-368 125,1 404,39 508,73l315 120 250 186c79,104 32,59 136,132 4,2 9,6 12,9 46,37 10,28 72,72 81,59 175,135 228,230 70,124 74,52 126,163 94,198 240,732 81,931 -100,125 -15,270 -164,416 -57,57 -85,135 -136,170 -47,-62 -13,-54 -86,-136 -70,-77 4,-62 -99,-128 -291,-188 -225,-226 -705,-203 -135,6 -209,97 -284,166 -365,337 -478,662 -567,1274 -83,571 -4,709 73,1216 19,127 1,89 48,181 42,84 32,105 58,193 13,45 50,106 69,157 136,381 313,525 510,857 19,31 30,44 55,68l365 442c155,204 383,386 581,556 179,154 288,286 478,433 184,143 372,237 562,370 180,126 392,200 605,305 199,97 430,232 641,290 255,69 464,147 736,178 91,10 110,38 173,51 115,24 243,17 360,31 91,11 151,-30 192,72 -351,36 -733,-109 -867,-116 -464,-25 -971,-273 -1381,-441l-320 -176c-34,-21 -24,-13 -69,-34 -502,-242 -1378,-993 -1678,-1387 -45,-59 -40,-40 -92,-96 -34,-37 -53,-70 -91,-115 -117,-134 -284,-284 -374,-434 -53,-90 -127,-148 -180,-234l-271 -536c-78,-190 -179,-383 -210,-595 -19,-136 -46,-217 -67,-329 -60,-316 -102,-775 -44,-1081 24,-129 80,-367 134,-469 46,-90 22,-61 55,-151 19,-50 248,-458 314,-516 74,-64 120,-141 220,-174 211,-70 462,-139 683,-45l374 225c34,28 86,91 109,98 83,23 86,-175 118,-274 85,-262 96,-412 40,-695 -22,-113 -37,-212 -107,-282 -79,-79 -109,-153 -179,-235 -156,-185 -446,-429 -686,-513 -215,-76 -474,-112 -707,-120 -123,-4 -224,38 -346,64 -233,49 -418,81 -654,155 -536,168 -1504,958 -2016,767 -68,-26 -84,-40 -147,-53l-139 -35c-131,-12 -71,72 -45,126 9,21 21,61 27,79 70,224 173,313 343,464 294,261 543,250 959,285zm11395 -2062c-143,341 -566,210 -507,-88 20,-101 17,-132 89,-165 259,-118 510,35 418,253zm-664 -351c-61,111 -63,233 -246,223 -95,-5 -244,-149 -229,-240 13,-75 180,-191 276,-206 126,-20 259,113 199,223zm-832 -99c-71,-116 -97,-86 -59,-257 79,-33 306,-79 331,48 36,180 -119,215 -272,209zm-3216 -332c-11,-99 -20,-75 22,-140 88,-7 113,21 107,108l-129 32zm2588 -87c2,-67 84,-146 178,-147 99,0 182,84 185,169 9,212 -370,180 -363,-22zm-503 -102c52,-228 255,-194 282,-98 28,101 -59,256 -282,98zm-2681 -274c84,11 299,118 354,169 -23,64 2,66 -40,118l-89 204 94 17 29 -104c6,-30 13,-76 31,-109 29,-56 57,-81 98,-74 95,17 30,12 56,31 -38,125 -115,54 -113,248 1,70 21,102 43,146 28,56 14,71 90,96 381,120 441,-234 470,-257 124,140 -117,210 -145,454 357,262 8,484 7,573 -2,126 72,57 94,214 34,234 -185,158 -64,433 38,87 89,101 5,205 -149,185 -34,87 -85,179 -113,6 -183,-39 -280,57 -73,73 -50,194 -6,280 89,48 185,45 252,-14 25,-22 55,-68 68,-99l50 -138c36,78 16,101 -20,169 -42,80 -39,80 -68,180 -86,-34 -159,-18 -262,-12 -57,164 -108,306 105,322 97,8 70,-34 99,27 -106,59 -183,-22 -236,116 -60,156 63,164 110,236 -100,199 -180,60 -34,327 31,58 -4,38 44,79 41,36 128,28 177,43 78,-157 163,-99 137,-276 -16,-104 -53,-86 -10,-171 19,-39 68,-101 83,-147 40,-122 -114,-135 -55,-279 97,-240 -42,-249 -18,-353 8,-36 109,-152 59,-351 -27,-108 -43,-48 6,-160 155,-359 -122,-218 39,-522 79,-150 24,-259 -30,-363 53,-112 143,-155 127,-295 -40,-366 -30,-236 -120,-353 10,-22 135,-235 157,-260 103,-3 148,48 250,77 15,395 40,588 -29,925 -21,105 26,82 23,277 -3,215 -20,389 -5,596 25,340 -36,712 116,1182 69,210 40,320 168,494 58,78 66,136 103,230 35,91 65,129 117,213 46,74 82,135 128,202 131,190 37,146 6,218 21,-2 119,-41 233,54 -192,135 -671,-107 -855,-234 -71,-49 -31,-40 -98,-87 -57,-40 -76,-28 -128,-81 -53,-56 -20,-80 -109,-73 -68,4 -83,44 -94,110 -49,296 85,929 42,1101 -82,-22 -20,-34 -103,-66 -36,-15 -109,-17 -156,-28 -121,-28 -139,-67 -291,-84 -192,-22 -539,-33 -738,-9 -154,18 -479,92 -606,137 -114,41 -446,212 -535,219 52,-118 280,-312 376,-524 40,-89 293,-418 367,-563 29,-57 43,-98 73,-155 104,-199 108,-8 283,-647 41,-150 30,-59 73,-154 19,-42 29,-360 38,-437 9,-84 25,-119 38,-193 11,-68 -2,-145 3,-220l44 -869c9,-97 33,-80 40,-185l10 -704c9,-159 -11,-294 -5,-434l12 -874zm2446 202c-60,-32 -68,-30 -99,-95 55,-113 120,-146 220,-58 -14,83 -53,123 -121,153zm-425 -281l36 -82c127,-4 163,39 132,153 -109,30 -124,5 -168,-71zm-438 -164c53,-69 59,-73 163,-63 37,103 39,162 -82,181l-81 -118zm-668 -322c74,-48 49,-43 90,-91 119,-139 334,74 311,222 -16,107 -135,156 -238,137 -158,-29 -173,-103 -163,-268zm-441 -307c132,-31 161,2 130,148 -50,22 -89,15 -154,-2l24 -146zm1850 6c78,-165 626,-567 855,-660 205,-83 486,-335 1113,-420 220,-30 269,-10 445,33 229,55 365,0 589,137 397,243 571,290 809,725l220 547c63,196 55,226 79,440 6,56 24,151 23,215l-96 678c-108,-2 -131,-74 -228,-118l-489 -216c-146,-74 -1940,-830 -2152,-890l-1101 -431c-48,-22 -25,-1 -67,-40zm-2054 -221l11 173c-84,25 -115,46 -191,7 -54,-117 63,-219 180,-180zm-736 -172c-48,-212 254,-253 288,-58 34,200 -245,251 -288,58zm-538 -519c63,-44 213,-228 355,-1 83,132 -37,312 -222,264 -137,-34 -146,-108 -133,-263zm1622 -131c-10,-88 22,-112 99,-133 55,44 48,22 53,100 -52,37 -84,43 -152,33zm-1783 -157c-110,275 -662,84 -443,-250 46,-71 194,-194 323,-113 88,55 178,218 120,363zm3216 8927c-95,88 -99,118 -217,205 -363,271 -533,560 -634,619l-479 730c-142,170 -42,94 -147,266 -244,402 -224,465 -339,882 -15,53 -33,106 -41,167 -12,105 11,19 15,138 -87,-3 -338,-90 -405,-137 1,-106 58,-166 75,-291 69,-542 548,-1432 849,-1804 59,-72 100,-142 162,-211l898 -986c147,-121 270,-222 416,-349l812 -700c149,-120 283,-244 424,-321 222,-122 886,-877 1141,-1135 258,-259 613,-761 830,-1073l293 -452c39,-53 46,-37 91,-96 130,-168 410,-646 478,-846 208,-610 379,-1255 202,-1929 -26,-100 -65,-162 -104,-268 -57,-152 -160,-421 -245,-520l-363 -381c-182,-128 -252,-177 -484,-282 -172,-78 -385,-117 -590,-155 -265,-49 -412,-31 -663,27 -177,41 -412,95 -584,160 -446,167 -1128,547 -1384,913 -133,-15 -443,-176 -515,-250l388 -375c158,-114 320,-213 449,-337 103,-97 321,-214 467,-299 203,-117 348,-161 553,-234 709,-250 1185,-351 1969,-282 141,12 402,12 522,58l520 198c78,42 65,61 113,94 74,52 170,73 255,139l218 176c87,69 145,107 217,176 43,42 52,56 87,100 49,61 63,59 106,101l309 478c183,289 263,620 390,768 36,43 63,56 94,93 254,308 325,499 874,520 204,8 193,-20 331,-69 51,68 37,109 0,184 -78,163 -103,221 -233,308 -83,56 -82,94 -164,126 -120,45 -367,63 -493,24 -154,-47 -188,-233 -331,-183 -22,36 -98,493 -148,612 -142,338 -374,579 -438,721 -45,100 -88,170 -145,249 -35,47 -53,56 -87,100 -38,47 -46,82 -81,126 -126,164 -591,716 -725,827l-496 475c-49,82 -29,57 -93,116 -467,424 -787,672 -1287,1053 -148,113 -289,217 -433,331l-656 504c-39,26 -85,43 -119,67 -39,29 -152,149 -328,272l-474 313c-230,157 -571,510 -623,549zm-4315 -9734c-15,-139 283,-361 431,-292 70,33 50,40 80,90 143,245 95,-7 98,315 0,69 13,63 -41,106 -117,91 -468,160 -551,-157l-17 -62zm-332 -642c-23,-170 59,-305 192,-346 203,-61 275,85 324,222 63,173 -31,263 -189,312 -118,37 -120,20 -189,-39 -56,-47 -128,-76 -138,-149zm3311 -273l-1 -117 121 28c-20,106 -33,112 -120,89zm-3393 -289c-26,-151 3,-288 146,-297 105,-8 199,134 206,218 -13,39 -58,18 -140,145 -86,-7 -150,-34 -212,-66zm2682 1721c-101,-11 -18,-6 -75,-24 -191,-59 -86,1 -191,-120 -205,-238 -204,-131 -385,-421 -108,-173 -596,-498 -680,-1313 -32,-311 -21,-423 14,-727l174 -611c61,-135 61,-29 183,-231 85,-142 514,-519 634,-548 189,226 242,1563 273,1925 57,661 16,1379 53,2070zm-2332 -2170c-183,78 -307,-9 -185,-183 157,-15 245,26 185,183zm7140 -250c-9,-158 11,-215 138,-258 421,-143 310,588 -138,258zm-7141 -227c35,-26 67,-25 122,-19l2 100c-53,38 -78,55 -147,23 -7,-12 -35,31 -13,-56 3,-13 28,-42 36,-48zm240 -265c-33,319 -290,-70 0,0zm7120 -12c-75,33 -138,36 -192,-22 -15,-15 -45,-77 -48,-100 -29,-224 294,-179 240,122zm-180 -552c14,88 28,211 -97,141 -97,-55 -30,-140 97,-141zm-82 -123c-54,16 -234,37 -155,-71 27,-36 152,-75 155,71zm-3374 -939c-108,-78 -86,-46 -228,-37 -95,6 -212,1 -310,2 -159,2 -362,50 -502,98 -433,149 -205,26 -681,251l-471 292c-405,284 -605,715 -791,1175l-110 511c-38,279 7,535 110,781 184,440 227,418 481,739 50,64 67,115 126,185 249,294 334,359 628,592 64,52 87,91 160,150 193,155 251,233 508,403 462,307 1277,782 1803,951l1298 523c54,21 174,56 234,73 152,43 307,84 465,136 154,51 288,135 429,192 152,61 296,90 439,162 154,79 285,110 442,178l612 299c63,34 279,129 280,194 2,51 -21,63 -74,62 -24,-1 -174,-79 -199,-94 -245,-151 -577,-245 -841,-380 -247,-127 -986,-421 -1302,-541 -148,-56 -304,-87 -447,-155 -296,-140 -1060,-387 -1115,-414l-1427 -706c-590,-300 -1276,-835 -1755,-1308 -52,-51 -101,-105 -152,-159 -49,-51 -91,-115 -133,-157 -469,-470 -163,-323 -365,-524 -56,-57 -70,-111 -115,-176 -168,-242 -282,-540 -305,-914 -18,-278 2,-294 67,-506 77,-251 253,-630 393,-830 303,-435 870,-916 1417,-1028 332,-68 214,-60 453,-146 267,-95 790,-64 1097,-28 -30,66 -69,92 -119,154zm2396 32c-62,-40 -35,-36 -118,-68l-349 -165c21,-93 208,11 268,37l981 530c148,80 544,369 657,461l394 373c127,127 48,116 186,184 172,85 97,30 251,-25 275,-98 748,23 921,159 58,45 124,171 119,239 -518,55 -607,16 -1090,360l-401 324c-85,57 -144,85 -225,147 -400,311 -1178,541 -1642,266 -74,-43 -173,-83 -229,-124 -75,-55 -289,-295 -292,-399 102,31 391,24 508,-13 124,-41 246,-169 323,-254 169,-187 341,-539 215,-874 -151,-398 -140,-431 -474,-706 -74,-62 -85,-116 -138,-152 -43,-30 -140,-61 -195,-94 -254,-149 -340,-98 -388,-191 71,-87 138,-15 221,26 190,96 661,345 786,476 50,52 10,55 122,190 67,81 69,85 106,205 38,120 64,124 99,211 135,324 82,734 -107,969 -399,499 -691,264 -808,365 19,118 296,241 353,260 290,94 719,42 1010,-72 472,-185 427,-130 790,-431 89,-74 233,-224 320,-279 600,-375 708,-205 933,-288 4,-129 -87,-88 -200,-145 -466,-236 -545,-12 -874,-7 -141,2 -151,-70 -207,-155 -50,-78 -283,-293 -352,-352 -306,-263 -265,-226 -594,-460 -73,-52 -145,-93 -214,-138 -70,-46 -121,-89 -210,-142l-456 -248zm-4482 -543c96,52 194,82 242,165 -60,53 -164,86 -246,104 -3,-4 -7,-10 -9,-13 -97,-147 -86,-70 -167,-167 56,-37 49,-12 103,-38l77 -51zm-2136 2460c-28,-48 -45,-112 -28,-154 -185,-29 -98,-98 -325,-213 -179,-91 -185,-96 -408,-77 -204,18 -308,119 -432,227 -52,47 -158,195 -169,260 102,104 210,64 355,158 63,41 74,84 134,136 321,281 328,322 572,775 55,103 107,243 161,376l356 721 442 633c270,387 1014,992 1410,1280 268,194 688,430 1015,578 102,46 229,134 346,192 223,111 522,231 763,313 441,151 407,166 743,334 404,201 806,313 1155,459 134,56 255,93 380,158 458,238 449,181 569,239 58,27 89,67 160,108 480,276 608,146 1177,709 55,54 111,79 6,145 -90,-60 10,-48 -292,-232 -282,-170 -331,-229 -676,-400l-1096 -498c-255,-113 -513,-198 -764,-311 -124,-56 -244,-90 -365,-153l-1125 -490c-124,-64 -250,-102 -379,-158 -121,-52 -257,-99 -385,-154l-856 -468 -790 -557c-52,-48 -101,-82 -146,-123l-396 -390c-126,-112 -569,-559 -657,-689 -44,-66 -61,-102 -107,-161 -75,-94 -154,-196 -221,-297l-333 -745c-23,-64 -27,-157 -61,-205 -53,-75 -47,-5 -119,-153 -86,-180 -195,-345 -302,-504 -51,-76 -76,-86 -125,-143 -86,-99 -161,-181 -299,-239 -151,-63 -275,-75 -464,-74 27,-76 33,-45 52,-117 64,-244 62,-104 129,-203 38,-56 -17,-26 36,-109 28,-43 312,-263 388,-299 189,-92 353,-65 565,-10 258,66 295,209 365,309 188,-26 268,-334 376,-481 121,-165 178,-256 317,-349 4,-2 9,-5 12,-8 22,-17 284,-303 570,-525 340,-263 736,-462 1134,-627 397,-164 1013,-289 1461,-277 90,3 797,47 826,64 -43,129 -161,65 -329,64 -481,0 -424,-98 -1240,37 -178,30 -517,130 -683,211 -100,49 -210,88 -313,143 -77,40 -113,30 -172,57 -63,29 -4,1 -57,45 -31,26 -36,25 -75,49 -58,36 -70,53 -125,83 -247,132 -157,78 -397,285 -172,147 -319,268 -461,449 -130,165 -82,14 -398,492 -68,102 -313,470 -405,504zm1276 -2660c128,-228 674,-210 897,-175 276,43 432,92 594,278 70,81 88,57 148,114 -43,21 -404,111 -454,107 -93,-158 51,-75 -177,-214 -84,-51 -212,-69 -311,-103 -155,-52 -116,-84 -322,-60 -81,9 -133,-4 -201,3 -72,7 -93,34 -174,50zm3033 799c42,-83 156,-197 229,-264 135,-123 239,-266 410,-334 60,-24 28,-5 69,-54 33,-38 10,-24 65,-62 205,-139 456,-234 699,-296 231,-59 615,-157 850,-113l381 89c-72,32 -152,37 -239,68l-571 318 -329 270c-316,294 -596,595 -839,962 -83,126 -156,234 -233,366 -115,196 -407,1122 -442,1336l-2 275c-4,127 -53,82 -53,232 -1,236 -13,342 -36,562 -36,339 -4,812 -28,1096 -22,272 -54,539 -4,818 15,85 19,104 2,232 -95,-8 -326,-171 -369,-264 47,-86 84,-40 135,-155 135,-304 32,-344 -94,-590 53,-94 152,-131 171,-292 21,-177 -54,-218 -121,-309 33,-121 103,-148 100,-310 -2,-166 -43,-194 -124,-290 32,-80 37,-27 73,-129 89,-257 9,-267 -37,-457 212,-199 -34,-300 -14,-466 12,-108 124,-92 112,-224 -11,-125 -67,-144 -100,-235 27,-100 106,-132 46,-270 -30,-68 -72,-168 -139,-211 -51,-32 -214,-34 -267,-23 -90,20 -122,87 -169,147 59,3 45,13 100,-15l230 -87c37,77 283,280 80,330l-45 -157c-140,-33 -352,29 -323,219 37,242 278,47 381,11 8,81 -5,95 26,162 19,39 53,58 52,122 0,45 -77,239 -83,277 -18,100 85,160 59,268 -25,103 -95,108 -106,245 69,71 132,52 111,216 -13,106 -80,133 -150,189 140,-229 66,-134 54,-365 -91,-17 -76,-59 -176,-37 -85,19 -208,97 -218,202 -13,121 52,75 3,166 -96,-43 25,11 -36,-59 -6,-7 3,-62 -72,-13 -45,30 -21,57 -16,69 29,76 11,-31 34,55 -95,51 -125,72 -80,170 -64,36 -52,28 -91,86 22,50 2,-7 26,31 32,48 2,24 18,128l84 -2c28,-138 -28,-20 3,-123 12,-38 29,-32 45,-116 22,-118 34,-134 126,-192 139,52 118,58 275,16 12,246 197,133 119,383 -67,-69 -23,-205 -212,-247 -268,-60 -360,388 -110,465 148,47 211,-78 317,-130 -21,125 -76,95 -48,190 20,65 53,62 93,115 3,41 -2,90 1,123 8,85 6,21 26,100 41,164 -245,223 -174,377 41,89 1,1 59,68 202,231 -43,693 -214,449 91,-62 145,-67 188,-176 81,-203 -93,-419 -314,-293 -111,63 -85,105 -132,217 -290,-77 -121,-241 17,-368 1,-80 -12,-117 5,-183 -54,3 -62,7 -92,28 6,41 44,68 59,103 -92,41 -139,95 -177,188 -7,16 -12,28 -20,45 -2,4 -7,19 -9,16 -1,-4 -5,11 -9,15 -80,-10 -148,-63 -170,-147 -64,-253 -66,-603 -60,-852 13,-602 -13,-1776 -85,-2357 -12,-90 -37,-169 -48,-262 -13,-113 24,-108 -8,-239l-148 -456c173,-77 360,-163 573,-215 152,-37 256,-61 391,-48 79,7 124,-30 219,-30 -32,189 -363,242 -22,601 262,-3 260,31 424,-110 120,-103 135,-205 71,-382 -61,-18 -67,3 -115,-41 114,-90 328,30 234,303 -108,314 -258,446 -588,375 -88,-19 -137,-66 -179,-133 -53,-83 -94,-260 -59,-364 16,-47 14,-25 14,-57 0,-154 -288,69 -189,414 95,51 42,-28 115,65 27,36 27,56 70,96 212,201 552,139 735,-21 118,-103 203,-238 241,-441 56,-301 -184,-370 -232,-403zm-4629 16142l306 160c111,65 218,138 315,168 -21,84 -79,122 -21,106 130,-36 -96,-158 420,109 108,56 143,105 271,143 101,30 204,70 304,109 106,41 188,76 292,122l950 315 6 94c30,91 41,197 76,299l172 430c35,75 187,302 262,356l165 126c73,38 87,110 169,120 297,33 726,397 1458,78l273 -119c126,-72 464,-355 540,-473 137,-215 243,-451 307,-729 345,-26 1681,-363 1954,-550 118,-82 218,-103 355,-164 350,-155 1239,-760 1537,-988 85,-65 181,-164 266,-250 99,-101 149,-161 250,-247 336,-288 887,-1060 1082,-1442 241,-470 436,-963 530,-1497 26,-147 23,-274 49,-405 89,-439 -1,-935 -102,-1362 -93,-394 -311,-684 -477,-1033 -76,-158 -85,-201 -189,-328 -76,-95 -126,-180 -205,-292 -46,-64 -198,-194 -272,-242 77,-208 342,-489 446,-773 36,-100 56,-231 118,-294 300,69 286,64 614,29l21 68c152,-40 413,-253 467,-363 50,-101 55,-207 118,-297 94,-135 25,-177 49,-314 -108,-65 -61,-17 -138,-120 -91,16 -420,318 -839,68 -85,-52 -121,-142 -187,-207 -219,-217 -339,-720 -708,-1218l-167 -225c-138,-161 -436,-426 -610,-528 -159,-93 -285,-268 -452,-333 -98,-39 -186,-58 -291,-104 -88,-38 -207,-60 -288,-81 -372,-95 -969,-169 -1361,-128 -71,8 -102,27 -153,35 -96,15 -101,-19 -176,-8 -64,8 -45,29 -128,53 -50,16 -122,25 -172,35 -350,74 -312,80 -606,161 -282,78 -547,208 -795,363 -159,99 -297,213 -452,314 -63,40 -183,109 -240,154 -56,45 -43,55 -87,97 -41,40 -85,63 -143,84 16,-255 -19,-459 -14,-712 11,-470 5,-1834 83,-2216 53,-261 155,-666 260,-901 43,-98 87,-147 139,-254 118,-246 279,-498 449,-710 245,-305 104,-317 984,37 122,49 64,42 135,137 54,72 87,57 148,121 93,97 177,204 202,338 68,360 114,566 -133,847 -167,190 -421,294 -686,220 -81,-22 -18,-7 -86,-58 -251,137 -120,165 -38,409 40,117 75,185 154,259 74,69 451,248 569,278 339,87 733,66 1052,-62 415,-166 309,-46 805,-456 40,-33 68,-68 112,-95 310,-198 559,-441 954,-516 146,-28 234,-21 378,-39 45,-6 130,-28 172,-22 92,13 147,104 165,-29 17,-128 -105,-257 -180,-334 -62,-64 -276,-184 -364,-236 -160,-96 -146,-57 -343,-71 -230,-17 -460,-40 -722,2 -286,45 -355,-315 -909,-668 -167,-106 -293,-230 -472,-335 -47,-27 -70,-44 -112,-74 -51,-36 -78,-43 -131,-76l-396 -224c-200,-90 -54,-43 -359,-160 -58,-22 -23,5 -66,-38 182,-223 621,-388 729,-451 77,-44 194,-87 200,-190 -167,-119 -627,-178 -832,-150 -505,69 -913,150 -1360,399 -71,39 -90,76 -158,112 -78,41 -742,-22 -897,-24 -230,-3 -460,-15 -675,25 -100,19 -114,66 -212,54 -82,-10 -114,-58 -162,-91 -84,-56 -82,-31 -163,-108 -87,-82 -211,-125 -335,-180 -467,-206 -1311,-6 -1378,205 -15,44 1,160 53,192 56,22 147,-20 246,-7l267 67c95,36 355,177 392,273 -81,22 -89,-7 -165,20 -34,11 -132,66 -163,86 -92,59 -187,128 -282,194 -382,261 -711,550 -1026,876l-457 505c-161,-156 -242,-122 -450,-194 -146,-50 -425,-8 -565,61 -115,56 -33,80 -126,161 -222,193 -258,186 -420,450 -54,87 -17,28 -102,75 22,70 44,218 98,282 122,9 125,-22 230,-30 145,-10 59,48 196,85 129,34 84,21 180,86 238,160 487,552 609,801l84 184c2,5 5,10 7,14 95,175 137,394 230,556 147,255 267,474 442,697 41,52 76,76 127,141l369 480c53,62 94,81 138,131l255 303 944 733c56,47 120,74 183,106 103,51 169,125 265,169 41,19 57,14 101,43 22,283 -34,735 -3,957 56,405 -68,2460 -167,2801 -38,130 -88,237 -121,376 -39,158 -90,215 -134,362 -149,490 -161,348 -336,679l-768 972c-56,49 -97,67 -121,146 162,132 175,81 362,-9l789 -288c592,-176 1466,-217 1897,286 74,88 71,112 153,108 34,-64 -9,-113 -42,-302l-28 -251c-11,-81 -4,-5 -19,-71 -35,-148 -53,-619 20,-725 23,8 359,256 652,274 214,14 668,108 848,25 13,-184 -252,-88 -395,-310l-292 -431c-84,-144 -158,-310 -224,-481 -86,-219 -140,-283 -154,-577 -23,-483 -117,-643 -84,-1323 10,-205 1,-450 2,-642 1,-111 -14,-191 5,-315 16,-112 5,-242 27,-347 191,-8 1111,480 1392,609 148,67 344,110 505,178l701 293c206,82 469,251 678,356 117,58 308,227 368,320 -119,250 -300,502 -454,728 -446,648 -592,635 -954,1054 -217,252 -435,486 -705,683l-966 834c-70,62 -148,113 -219,174l-824 769c-192,197 -569,650 -719,874 -60,91 -103,133 -162,232 -136,229 -446,859 -531,1081 -85,222 -97,428 -160,652l-522 -165c-112,-47 -205,-134 -316,-180 -81,-33 -47,-32 -110,-76 -55,-39 -151,-73 -221,-110 -210,-112 -446,-337 -500,-369 -100,-59 -50,-8 -100,-89 -65,-104 -271,-214 -382,-300 -115,-88 -69,-101 -124,-208 -33,-63 -126,-108 -198,-150 -73,-42 -206,-180 -254,-248l-230 -305c-48,-49 -32,-11 -77,-90l-185 -333c-41,-88 -84,-131 -125,-226 -6,-14 -17,-41 -25,-59 -3,-6 -11,-23 -14,-29 -86,-183 -123,-173 -203,-525l-39 -121c-77,-139 -152,-784 -127,-932 21,-123 43,-20 63,-269 17,-220 127,-681 233,-827 137,-190 46,-250 313,-371 289,-131 258,-52 572,-80 49,71 137,163 86,264l23 5c30,12 33,-4 47,47 16,62 -10,44 2,123l115 30 34 163c98,-3 55,11 105,-42l220 -276c305,-485 338,-997 128,-1533 -178,-456 -276,-448 -595,-707 -83,-68 -55,-81 -185,-145 -308,-149 -622,-297 -979,-319 -417,-27 -951,121 -1336,274l-452 211c-419,232 -1194,731 -1670,482 -116,-61 -98,-85 -176,-152l-122 46c26,74 33,22 11,107 -58,232 60,698 207,845 94,93 153,218 234,325 54,69 138,104 218,154 98,61 123,86 256,115 139,30 169,28 294,76 -8,176 -52,343 -21,504 60,315 70,666 136,979 51,240 329,998 460,1217 198,330 452,685 675,1002 40,57 71,95 108,161l663 744c177,185 375,372 592,525 124,87 176,166 307,251l319 250z"/>
   <path class="fil0" d="M15401 31090c-171,364 -822,233 -644,-151 131,-283 506,-248 604,-90 36,58 72,173 40,241zm-1349 92c-72,-75 -40,-53 -156,-87 -88,-26 -107,-68 -157,-109 16,-226 227,-355 429,-229 195,122 184,423 -116,425zm2280 22c-326,10 -307,-67 -417,-123 4,-181 -12,-221 96,-318 255,-230 472,14 459,165 -14,167 -54,177 -138,276zm992 -309c-80,150 -218,136 -311,81 -94,-55 -154,-112 -61,-223 240,-286 446,2 372,142zm-4513 0c-19,-401 314,-241 368,-161 58,86 -9,188 -105,220 -149,51 -173,-1 -263,-59zm5075 -187c-8,-134 112,-211 229,-227 84,-12 84,-20 101,61 20,101 -32,189 -101,218 -72,30 -134,2 -229,-52zm-6028 -268c53,-24 131,-51 202,-55l63 57c-3,103 -32,40 -22,114 2,13 82,50 -56,69 -165,23 -204,-30 -187,-185zm7259 -121c-39,164 -239,210 -275,151 -35,-57 8,-232 275,-151zm-8102 -9c15,-142 259,-212 264,-77 1,28 0,27 -7,51 -24,91 -94,153 -191,101 90,-52 98,13 112,-111 -131,1 -75,35 -178,36zm8669 -202c44,-77 31,-67 146,-61 -5,143 -80,151 -146,61zm4618 -3580c42,34 51,42 169,41 182,0 451,26 612,0l-66 150c-106,-21 -96,-48 -223,-41 -137,8 -160,76 -240,-5 108,-70 -10,12 135,-41 7,-3 14,-7 20,-9 6,-3 14,-5 19,-10l-280 -23c-192,18 -44,-12 -95,41l66 13c5,2 11,6 16,9 5,3 11,9 15,11 4,3 11,8 15,13 -201,46 -439,16 -645,16 37,-98 -42,-78 104,-82 -51,-23 -55,37 -14,-40 39,-75 -15,-32 92,-44 114,-13 94,21 203,-29l-37 -29c-96,-45 -56,-7 -149,-24 11,-122 69,-65 194,-62 118,3 170,7 287,27 -65,101 -19,32 -161,98 -6,3 -13,7 -18,10 -6,2 -13,6 -19,10zm-20409 -2173c18,-11 4,-5 29,-12 109,-27 958,-4 1041,74 -18,14 -2,11 -42,20l-785 -3c-144,10 -195,27 -243,-79zm21566 -83c36,-125 268,-71 472,-67 104,2 187,3 291,2 49,0 87,3 135,11 1,0 47,8 51,9 5,2 11,3 15,5l40 19c-56,88 -275,47 -490,46 -150,-1 -392,33 -514,-25zm-21629 -83c136,-81 647,-1 763,-2 97,0 187,1 284,11 27,42 25,57 41,108 -128,-14 43,-59 -532,-51 -104,1 -207,2 -310,2 -305,-2 -209,-8 -246,-68zm21707 -187c306,53 672,7 892,39 90,14 70,16 88,65 -64,38 -498,22 -607,21 -367,-6 -445,31 -373,-125zm-21833 -60c247,-26 400,25 599,40 60,4 109,-5 166,0 72,6 74,22 121,24 120,4 210,-52 230,80 -167,97 -259,-52 -600,-22 -485,42 -425,69 -516,-122zm21958 -124l14 59c170,17 843,-27 930,22 -18,98 -83,68 -198,66 -286,-4 -537,-24 -823,-10l77 -137zm-22020 -22c22,-18 2,-13 44,-23 72,-19 172,-3 236,8l607 18c138,16 178,-12 201,112 -127,-5 15,-47 -261,-34l-600 17c-55,-3 -60,-19 -120,-39 -111,-36 -71,19 -107,-59zm22020 22c14,-139 34,-131 171,-142 102,-8 196,-17 286,-24 96,-9 210,1 309,-1 93,-2 226,-14 265,62 -73,174 -698,25 -1031,105zm92 -218c-22,-238 244,-169 515,-141 188,19 288,-47 505,32 -22,118 -57,82 -158,80 -250,-6 -731,37 -862,29zm-22284 -322l960 -27c82,13 67,-5 86,89 -71,42 -139,19 -233,16 -88,-2 -180,7 -270,10 -108,3 -400,-6 -446,33 84,43 20,-8 117,18 146,39 162,22 330,27 159,5 410,-20 553,5l26 97c-55,25 -666,6 -809,2 -122,-4 -167,-42 -185,62l871 17c140,-12 155,-62 182,83l-1056 -19c-49,-116 -75,-285 -126,-413zm22492 -89c74,103 106,-5 423,45 136,22 362,-6 470,62 -70,128 -30,63 -468,73 -121,2 -449,-3 -550,-17l87 -225c39,-100 -1,-119 504,-78 83,6 134,25 227,27 92,3 175,-11 268,-4 -23,152 -114,98 -453,99 -139,0 -414,-45 -508,18zm-22568 -117l827 -7c132,-1 183,-30 226,69 -61,43 -689,55 -881,74 -167,15 -124,-28 -172,-136zm-64 -166c75,-53 444,-24 532,-19 116,8 176,-13 385,9 108,11 87,-21 122,51 -47,68 -46,44 -252,45l-558 4c-258,-8 -192,23 -229,-90zm23581 41c64,38 53,-27 75,42l-848 1c-160,-1 -177,3 -127,-128l932 -21c-11,75 -28,61 -32,106zm-856 -163c18,-109 17,-142 122,-153l583 8c45,2 89,2 133,7l102 25c3,1 10,4 15,7 -28,174 -120,44 -426,98 -117,20 -405,24 -529,8zm-22807 -125l843 26c119,6 197,-15 212,97 -69,36 -830,16 -991,35 -49,-65 -41,-77 -64,-158zm-66 -146c20,-49 -22,-38 92,-58 112,-21 882,16 946,58 -38,115 -174,35 -372,43 -157,6 -80,86 -560,23 -121,-16 -62,4 -106,-66zm-67 -292c190,-46 368,-36 568,-23 347,24 466,-56 477,180 -425,-40 -510,9 -872,-4 -172,-6 -154,2 -173,-153zm23101 147c21,45 -22,39 69,55 35,6 76,-7 106,-11 237,-34 464,15 728,17l-36 118c-83,13 -120,-1 -202,7 -182,18 -602,37 -757,15 14,-93 118,-389 162,-445 246,29 716,-19 926,39 -30,166 -85,143 -458,158 -164,7 -440,-72 -538,47zm-23178 -432c123,-69 717,-50 954,-64l74 220c-162,16 -336,10 -496,2 -137,-7 -326,15 -493,5l-39 -163zm24219 80c-298,39 -641,50 -951,38 3,-83 35,-188 81,-247 281,-19 659,-9 933,21l-63 188zm-24296 -451c343,-54 597,-20 933,-6l62 204 -950 37 -45 -235zm23472 139c-24,-33 -9,11 -18,-43 -45,-296 319,-212 510,-209 170,2 316,-5 490,13 -3,383 -210,228 -386,243 -88,7 -543,27 -596,-4zm-23547 -451c32,-19 11,-12 55,-22 147,-35 779,-13 881,6l29 175c-14,101 -838,39 -930,21l-35 -180zm24567 102l-959 0 45 -250c292,33 631,54 958,31l-44 219zm-24655 -492c264,-30 650,7 930,13l51 228c-191,10 -310,3 -478,36 -151,29 -315,29 -465,4 -9,-96 -38,-232 -38,-281zm-52 -305c185,-61 695,-60 916,-30 50,111 69,233 -62,253 -27,4 -85,2 -117,4 -54,3 -140,13 -215,14 -477,6 -518,-9 -522,-241zm24820 27c-142,16 -110,24 -165,-58 -148,188 -554,1 -720,102 11,34 -42,48 164,76 87,12 153,25 231,40 162,29 306,42 475,41l-39 239c-312,-34 -613,7 -939,-6 -7,-88 84,-567 108,-674 169,-21 399,-8 575,-9 328,-1 345,-57 310,249zm-24854 -408c277,19 871,-55 916,51 24,56 14,104 13,173 -150,32 -400,17 -562,5 -289,-20 -382,90 -367,-229zm23988 75l22 -322c263,52 141,43 473,40 81,-1 144,18 210,22 59,3 149,-9 242,-1 15,299 -88,249 -350,249 -200,0 -389,33 -597,12zm-24008 -452c96,-18 319,15 452,18 174,3 312,-1 476,25l2 205c-79,6 -154,2 -231,4 -146,4 -230,89 -698,37l-1 -289zm24035 78l39 -276 889 32 -6 246c-107,15 -153,3 -207,-54 -149,102 -512,25 -715,52zm-24066 -449c135,-9 815,-9 895,41 29,28 39,180 40,223 -205,58 -719,33 -926,-17l-9 -247zm24992 78c-101,6 -112,-13 -203,-9l-663 26 -12 -318c47,-2 430,69 695,20 96,-17 105,-45 197,-43l-14 324zm-24117 -428c6,84 21,181 -4,258l-886 -34c-14,-144 -51,-260 12,-299 25,-16 269,-2 291,3 67,14 38,28 117,43 129,25 236,-5 470,29zm24116 -1c-99,27 -731,60 -826,38 -79,-18 -73,-55 -73,-184 0,-10 1,-77 2,-83l25 -84c91,-57 726,-17 882,9l-10 304zm-25052 -536c210,44 774,-13 917,60 41,68 32,217 16,301 -307,8 -615,-17 -911,-31l-22 -330zm50 -107l7 -216c188,-64 632,49 900,-49 15,460 3,283 -291,302 -113,8 -543,10 -616,-37zm24091 -80c127,-22 737,-27 886,-19l30 323 -893 9 -23 -313zm-45 -480c322,-17 626,-19 949,8 72,557 -173,354 -860,354 -83,0 -62,-16 -72,-131 -7,-82 -21,-141 -17,-231zm-23140 246c-208,-77 -646,42 -911,-50 16,-103 18,-165 30,-271 85,-18 379,13 480,24 70,8 167,38 214,36 79,-2 133,-41 210,-51l-23 312zm24073 -646c38,462 36,294 -478,294 -164,0 -272,34 -468,-2 -58,-414 98,-212 946,-292zm-24053 295c-370,-62 -432,-3 -881,-107l18 -260c156,-9 733,9 922,45l-59 322zm23993 -625l41 261c-338,3 -639,36 -970,-31 -15,-202 -108,-228 326,-232 187,-2 422,-11 603,2zm-24837 152c40,-383 100,-269 516,-255l467 14c-111,252 144,306 -361,260 -217,-20 -419,10 -622,-19zm23823 -370c163,-18 292,-17 453,-11 181,6 350,-52 516,-37l11 128 -104 53c-106,28 -583,8 -715,3 -140,-5 -162,21 -161,-136zm872 -380c20,76 55,166 61,238 -205,86 -723,62 -974,31 -76,-275 -49,-213 308,-227 203,-8 386,-35 605,-42zm-87 -286l49 206c-299,29 -663,80 -934,39 -19,-122 -86,-190 -3,-219l888 -26zm-971 -243l908 -13 42 212c-252,-28 -577,21 -838,-3 -51,-4 -155,27 -112,-196zm-23548 899l47 -316c251,-52 668,67 855,11 -17,-156 -110,-70 -404,-109 -80,-11 -154,-1 -227,-24 -80,-24 11,-24 -88,-23 -45,1 -33,21 -122,8 12,-73 27,-58 30,-134 3,-55 -14,-75 25,-150 194,-27 801,11 891,-18 -11,-142 -77,-101 -395,-105 -163,-2 -315,23 -484,2 6,-43 14,-80 20,-114 4,-17 7,-34 12,-51l18 -47c103,-62 779,49 927,-34 8,97 -153,837 -180,1008 -24,148 -18,110 -145,110 -103,0 -160,21 -288,10 -159,-13 -328,8 -492,-24zm24395 -1174c52,224 56,194 -375,198 -184,1 -381,44 -537,-27 -25,-107 -62,-138 80,-151l832 -20zm-998 -187l893 -35c148,182 -15,151 -366,171 -100,5 -189,-6 -296,-4 -164,3 -218,21 -231,-132zm-22271 203c-103,-22 -33,-43 -195,-25l-733 -12c-3,-73 19,-166 43,-224 116,-9 386,-31 489,-16 271,39 99,28 200,0 81,-22 176,-6 262,-3 7,97 -28,217 -66,280zm22184 -468c99,-9 194,11 266,3l530 -25c122,5 140,36 142,166 -282,11 -601,53 -902,13l-36 -157zm-22074 99c-195,-29 -795,14 -918,-30l26 -180c80,7 395,32 467,16 67,-15 13,-19 94,-32 45,-6 92,1 136,7 80,12 154,24 246,25l-51 194zm4613 12671c-273,-168 -578,-427 -806,-644l-74 -72c-37,-41 -1,1 -31,-39 -83,-6 -125,-75 -194,-127 -67,-50 -128,-110 -184,-169l-781 -772c-35,-35 -50,-58 -84,-102 -53,-67 -106,-116 -164,-187 -128,-158 -230,-341 -358,-492 -42,-50 -43,-32 -88,-98 -65,-94 -95,-115 -153,-199 -46,-65 -96,-141 -134,-218 -117,-237 -297,-420 -392,-664 -66,-168 -112,-325 -189,-494 -38,-84 -78,-158 -115,-237l-213 -491c-37,-101 -67,-158 -100,-251l-363 -1025c-70,-212 -57,-405 -112,-591 -115,-394 -220,-706 -225,-1139 -11,-812 -83,-1575 12,-2407 20,-169 88,-770 131,-905 98,-310 122,-873 246,-1162 39,-89 68,-163 102,-249 31,-81 46,-174 86,-245l232 -472c31,-75 81,-136 128,-224 106,-199 117,-249 254,-451l510 -876c170,-295 354,-582 557,-850l155 -197c207,-304 146,-269 426,-610 285,-347 234,-222 521,-514 118,-119 280,-202 401,-303 244,-202 157,-184 238,-279l275 -243c151,-104 262,-185 418,-286 392,-254 876,-621 1315,-777l965 -442c240,-125 347,-105 522,-182 92,-41 141,-69 245,-87 120,-20 173,-50 272,-79 171,-50 400,-76 586,-117 701,-157 1754,-412 2429,-356 178,15 411,-62 615,-35 120,16 183,-24 319,-7 302,38 580,101 875,159l1146 261c367,103 751,148 1112,275 263,93 524,168 759,300 41,23 70,22 98,31l233 111c53,21 88,22 143,44 72,29 178,79 234,120 135,100 304,140 461,220 440,222 441,238 884,523 196,126 369,270 537,416 210,182 422,313 624,515 137,137 232,228 345,338 278,270 409,379 647,740l145 207c38,51 34,24 73,93 28,50 27,80 64,122 27,32 49,38 84,82l594 979c25,47 26,65 55,109 66,101 112,266 174,366 137,222 229,481 335,722 85,193 235,544 280,747 18,80 27,161 56,261 52,187 206,636 241,813l183 877c74,401 98,827 155,1229 59,410 -46,888 -4,1289 29,276 -130,918 -171,1198 -16,111 -20,211 -37,319 -77,485 -253,908 -385,1352 -26,86 -49,190 -79,273 -441,1183 -461,1147 -999,2148 -67,124 -196,304 -282,422 -59,80 -106,94 -159,192 -170,309 -261,326 -441,595 -508,760 -682,708 -1021,1090 -157,178 -340,367 -542,494 -80,51 -388,317 -619,437 -88,45 -129,95 -202,149 -198,149 -422,276 -634,402 -298,176 -587,358 -915,492 -87,36 -159,78 -238,114 -268,121 -1028,428 -1271,468 -76,12 -225,38 -287,65 -48,21 -50,36 -110,55 -152,48 -589,101 -766,126 -121,16 -114,-7 -262,23 -106,22 -196,48 -290,64 -559,89 -1421,197 -1957,151 -404,-34 -795,-46 -1222,-83 -129,-11 -645,-160 -858,-196 -139,-24 -399,-114 -515,-168l-623 -245c-71,-23 -78,-17 -139,-49 -159,-81 -333,-121 -513,-190 -244,-93 -766,-313 -958,-430 -66,-41 -46,-47 -92,-72 -50,-26 -69,-17 -132,-55l-857 -551c-67,-76 -155,-105 -157,-173zm17412 -12952l822 -60c68,42 44,43 75,111 -103,82 -329,44 -487,53 -240,13 -402,69 -410,-104zm-21965 18c-135,-21 -280,-32 -425,-51 -166,-20 -314,9 -477,-22 28,-163 85,-132 447,-117 87,4 183,23 255,32 104,14 170,-4 256,-4l-31 121c-23,47 -7,17 -25,41zm22785 -169c-82,53 -702,96 -785,85 -124,-15 -140,-164 -139,-168 13,-65 61,-42 243,-45l547 -14c132,4 102,-2 134,142zm-23595 -122l25 -143 930 18c-6,137 -10,141 -131,161 -273,43 -476,-15 -824,-36zm22618 -85c49,-55 108,-69 206,-57l622 -17c119,-14 65,-28 95,33 -41,59 -2,37 -214,47l-600 26c-21,0 -40,2 -60,-4 -47,-12 -24,-8 -49,-28zm-74 -266c424,-52 363,-22 660,-28 83,-2 146,-21 230,-17 22,48 50,112 63,169 -559,81 -486,-12 -665,-1 -105,6 -134,29 -249,21 -32,-50 -37,-76 -39,-144zm-21511 137c-157,16 -843,45 -963,-36 29,-147 194,-85 473,-69 184,11 395,2 551,12l-61 93zm103 -166c-318,-7 -669,-4 -1009,-35 25,-164 89,-85 287,-133l30 -9c6,-1 20,-6 25,-7l392 33c106,4 213,9 320,13l-45 138zm21300 -265l896 -22 43 146c-119,77 -284,39 -438,50 -145,11 -274,43 -437,33 -29,-53 -69,-128 -64,-207zm-22222 40l37 -128c118,0 111,25 226,5 306,-52 449,29 801,9 -40,209 -91,105 -468,122 -116,5 -187,-5 -299,-17 -117,-12 -173,23 -297,9zm22102 -276c255,-61 604,-29 867,-55 40,45 72,96 75,161 -154,61 -676,43 -882,26l-60 -132zm-22036 67c60,-158 113,-58 385,-64 283,-7 405,-22 718,-13 -52,152 -324,113 -506,97 -148,-13 -469,8 -597,-20zm1213 -265c-22,121 -94,108 -210,124 -125,18 -895,-26 -924,-39 46,-119 255,-60 534,-67 194,-5 429,29 600,-18zm20776 84c13,-46 -35,-39 66,-64 25,-6 87,-4 119,-7 265,-23 285,-5 481,-13 96,-4 135,-46 205,1 -5,17 31,74 -163,84 -77,4 -170,1 -249,2 -110,2 -396,32 -459,-3zm-92 -187c75,-84 336,-38 466,-48 73,-6 162,-24 233,-34 125,-17 151,-17 196,62 -87,83 -313,43 -448,45 -136,2 -335,56 -447,-25zm-20684 103l-46 -54c-225,-1 -688,38 -908,19 -94,-8 -71,10 -106,-47 54,-99 -9,-14 254,-39l620 -15c91,1 199,-20 288,-28 -16,85 -52,114 -102,164zm-955 -203c-28,-105 119,-85 336,-86 80,0 71,18 162,15 208,-8 422,-57 639,-30 -44,173 -61,82 -157,104 -84,18 -224,35 -311,32 -126,-4 -581,11 -669,-35zm21489 -231c48,-33 840,-44 884,-20 -3,82 31,43 -47,75 -69,30 -545,0 -670,16 -195,25 -129,19 -167,-71zm784 -247c139,209 -167,149 -331,149 -149,0 -451,34 -554,-29 9,-104 35,-65 136,-68 79,-2 153,-18 252,-17 204,2 321,25 497,-35zm-21090 314c-217,-3 -1038,88 -1132,16 47,-64 151,-35 263,-37 161,-4 137,24 283,-32 63,-25 320,-10 443,-13 100,-1 91,23 123,-42 -46,-81 -285,-29 -498,-38l-416 2c-96,-7 -73,9 -105,-47 54,-73 11,-35 273,-40 290,-5 454,22 601,21 105,-1 178,-35 285,-18 -17,87 -68,157 -120,228zm20113 -377c71,-55 277,-38 331,-39 21,0 93,-7 127,-8l397 -20c95,11 65,-4 84,67 -19,10 -10,6 -36,7 -265,17 -489,53 -798,40 -113,-5 -70,10 -105,-47zm-21059 0c85,-93 755,-39 864,-44 108,-6 233,-19 331,-19 -30,162 -95,92 -173,99 -214,18 -971,-3 -1022,-36zm111 -166c22,-68 19,-81 255,-84 110,-2 202,18 310,20 160,3 520,-75 641,2 -47,108 -105,68 -245,86 -117,14 -177,25 -313,20l-476 -17c-19,0 -67,1 -83,-1l-89 -26zm470 -713c13,-46 -21,-28 75,-39 78,-8 7,-1 66,-10l964 -32c61,-12 34,-6 64,-34 -61,-66 -311,-21 -514,-16l-436 4c-148,-4 -116,-17 -127,-22 -3,-1 -9,-4 -13,-7 92,-55 466,-26 597,-23 100,2 161,-23 289,-22 108,1 198,-8 307,6 -83,218 -201,183 -514,196 -256,11 -502,13 -758,-1zm10656 18284c-358,97 -1559,45 -1894,-76 -114,-40 -313,-39 -447,-69 -60,-13 -124,-34 -197,-52 -47,-12 -59,-17 -96,-29 -67,-23 -29,-13 -120,-24 -108,-14 -522,-115 -621,-166 -57,-29 -78,-57 -173,-95 -184,-75 -387,-120 -550,-216 -103,-61 -67,-39 -200,-71 -125,-29 -251,-95 -368,-148 -116,-53 -254,-105 -373,-166l-512 -274c-123,-52 -83,-51 -160,-110 -80,-62 -254,-108 -339,-178 -36,-30 -23,-31 -64,-60 -97,-66 -130,-65 -237,-156 -65,-56 -150,-82 -245,-149l-678 -502c-171,-185 -360,-338 -533,-521 -96,-102 -198,-149 -287,-253 -101,-117 -220,-204 -325,-316l-312 -351c-46,-50 -210,-135 -398,-388 -46,-63 -183,-263 -221,-295 -212,-179 -431,-516 -565,-762 -320,-588 -534,-968 -780,-1579 -135,-334 -242,-711 -345,-959 -49,-118 -35,-189 -97,-296 -25,-41 -25,-54 -43,-103 -24,-70 -47,-133 -70,-199 -70,-198 -164,-635 -204,-852 -56,-296 -111,-577 -144,-889 -100,-941 -68,-1076 -33,-1990 12,-320 65,-652 88,-952l152 -888c166,-609 190,-1009 511,-1603 132,-242 219,-465 355,-700 64,-110 127,-227 185,-333l1345 -2071c56,-83 62,-91 188,-105l-306 484c-173,194 -956,1458 -1117,1738 -74,130 -96,237 -186,353 -153,199 -234,454 -361,673 -79,135 -107,193 -167,350l-210 556c-20,69 -33,152 -47,222 -29,143 -57,291 -86,431 -16,76 -8,144 -28,220 -59,220 -74,457 -126,684 -103,457 -117,1440 -95,1940l29 969c9,309 103,596 168,882 34,150 73,241 99,418 20,132 46,310 85,432 42,131 87,247 139,379 45,114 88,263 131,387l525 1296c31,73 43,131 72,197 56,123 113,223 171,347 127,272 414,708 598,953l334 433c30,46 74,112 111,158l892 928c58,60 81,73 135,134 242,276 574,464 805,747l189 184c30,19 59,34 90,55l782 521c64,41 94,79 154,115 369,224 618,364 1014,539 273,120 416,206 724,310 283,96 495,199 759,296 145,53 220,118 360,158l824 209c288,56 589,155 892,163l1454 85zm5110 -22477c20,34 55,73 35,141 -15,52 -69,83 -129,57 -89,-38 -93,-199 94,-198zm-10328 61c-3,-86 2,-83 34,-144l123 3 30 118c-78,61 -88,51 -187,23zm9583 -104c-38,-111 -60,-114 26,-197 4,-4 60,-54 65,-56 46,-19 60,2 98,20 40,150 -12,257 -189,233zm-9045 -163c27,-30 128,-80 163,-103l105 56c-7,134 -70,121 -188,148 -46,-39 -56,-36 -80,-101zm8217 -226c48,-26 112,-70 173,-55 66,16 112,67 137,136 -66,115 -345,206 -310,-81zm5523 4473c84,57 193,233 245,327 148,266 46,187 187,205 -3,-80 1,-52 -41,-121l-39 -62c-33,-71 -13,-52 17,-69l-82 -61c54,-65 40,-28 120,-52 123,-37 50,-95 146,-45 4,2 11,5 16,8l27 15c67,32 157,7 273,0 69,-4 163,-9 231,-7 149,5 100,51 142,119l66 0c-3,-3 -5,0 -6,10l-32 143 127 25c-38,109 36,37 -91,87l82 24c25,4 101,-7 119,40 24,61 -14,86 -17,90l-1004 -7c28,95 61,117 87,217 160,246 264,511 398,768 70,135 116,252 183,397 65,142 137,269 196,406l321 860c45,196 54,294 123,475 78,202 312,1208 350,1433 52,312 113,721 120,1043l31 500c32,350 -69,1589 -131,1951l-181 708c-63,311 -159,634 -268,933 -78,215 -110,452 -222,648 -86,151 -83,255 -124,333 -30,59 -31,7 -49,81l-64 218c-69,139 -134,274 -194,406 -66,147 -91,264 -192,389 -55,69 -41,119 -88,201l-350 562c-145,153 -249,335 -364,525 -66,110 -85,44 -141,148 -52,96 -21,110 -107,184 -124,106 -193,209 -295,305 -72,68 -13,-4 -50,93 -36,95 -116,205 -175,282 -85,112 -89,49 -208,103 33,78 -4,4 75,60 -55,68 -117,110 -174,172l-376 369c-259,282 -1094,943 -1466,1124l-215 156c-246,142 -419,311 -699,418l-514 232c-355,147 -659,308 -1010,460 -358,155 -746,224 -1137,351 -677,221 -1476,185 -1601,220 -100,27 -210,36 -324,50 -118,14 -226,21 -342,31 -139,13 -228,-1 -303,-44 66,-88 258,-74 365,-82 366,-28 1293,-114 1606,-196 240,-62 464,-22 746,-163 149,-74 173,-61 367,-90 237,-36 754,-269 986,-359 247,-96 568,-209 787,-350 44,-29 96,-52 151,-78 755,-363 1039,-662 1668,-1042 137,-83 624,-480 756,-610l433 -457c45,-51 53,-76 104,-124 126,-120 228,-202 328,-354l397 -514c88,-89 144,-128 208,-247 126,-238 235,-325 373,-538 61,-95 105,-165 170,-264 63,-97 94,-194 148,-307 87,-179 248,-391 334,-577 191,-417 362,-865 525,-1296 86,-228 390,-1210 417,-1380 18,-117 74,-297 80,-367l50 -375c98,-475 150,-1132 167,-1634 11,-328 -100,-1754 -203,-2074 -74,-231 -108,-542 -162,-726 -64,-216 -128,-498 -205,-706 -46,-124 -48,-246 -91,-364 -25,-66 -43,-87 -63,-166 -41,-166 -103,-364 -183,-500 -128,-217 -186,-372 -281,-630 -101,-273 -236,-416 -313,-577 -77,-161 -317,-596 -413,-724 -103,-137 -163,-297 -276,-407l-379 -532c-126,-195 -267,-330 -408,-481 -41,-43 -74,-65 -115,-113 -66,-77 -30,-43 -120,-106 -97,-68 -153,-162 -230,-227 -164,-138 -355,-276 -494,-416 -100,-100 -92,-136 -229,-227 -114,-76 -165,-98 -253,-204 -75,-90 -159,-113 -252,-181l-277 -178c-498,-334 -971,-478 -1119,-578 -123,-82 -567,-254 -721,-312l-635 -256c-214,-77 -492,-132 -715,-195 -111,-32 -258,-47 -382,-73 -119,-26 -243,-80 -360,-95 -388,-52 -719,-191 -1089,-256 -263,-47 -517,-117 -793,-118 -81,0 -141,15 -206,14 -323,-5 -392,28 -622,29 -148,0 -300,-8 -445,10 -265,32 -545,61 -818,91 -258,28 -511,87 -761,127l-758 154c-458,84 -672,249 -1042,326 -98,20 -396,138 -468,191 -62,46 -74,52 -149,79 -308,110 -345,132 -631,280 -111,57 -201,74 -313,142 -102,63 -177,116 -281,175l-1241 786c-60,42 -58,67 -107,120 -40,43 -84,57 -131,97 -52,44 -66,73 -113,115 -171,152 -304,287 -486,425 -215,161 -395,364 -565,572 -60,73 -44,91 -138,104 -32,-111 66,-149 139,-226 78,-81 121,-134 191,-223 88,-112 144,-93 223,-190 128,-157 283,-276 409,-420 70,-81 125,-126 208,-207l836 -613c53,-31 88,-27 152,-55 125,-54 674,-476 1015,-641l573 -255c94,-49 153,-78 269,-125 94,-38 180,-89 281,-133 205,-89 391,-152 599,-230 93,-34 88,-2 141,-25 1,0 44,-30 60,-40 17,-9 55,-26 73,-32 159,-62 183,-40 354,-61 85,-11 223,-60 326,-87 128,-35 215,-39 350,-64 118,-23 222,-48 341,-70 119,-22 241,-26 365,-52 257,-54 830,-149 1109,-135 170,9 193,5 355,-15 184,-23 951,-55 1147,-18l711 116c120,18 222,56 335,82 437,100 1316,205 1696,372 56,24 81,37 148,59 52,16 113,47 150,59 112,36 204,38 319,93 307,145 552,202 871,371l399 223c73,36 98,23 160,47 121,47 717,372 798,444 276,249 132,118 362,258 45,27 80,41 133,74 163,99 309,249 456,372 80,66 152,122 226,189l333 308c104,97 218,159 316,285 65,84 131,136 205,208 150,148 260,277 390,438l274 348c61,89 -8,77 66,123zm-12974 -4537c59,-63 99,-67 195,-35 120,40 87,89 66,197l-140 47c-29,-45 -34,-59 -69,-98 -49,-57 -52,-23 -52,-111zm6822 -278c169,-56 262,418 -15,302 -82,-35 -195,-89 -183,-186 9,-79 47,-50 91,-63 55,-15 55,-36 107,-53zm-6011 293c-53,-122 -139,-324 94,-306 103,8 133,37 149,129 52,310 -177,191 -243,177zm5292 -156c-78,42 -202,5 -278,-37 -83,-47 -66,-224 -18,-283 113,-141 463,67 296,320zm-4339 -359c155,-77 426,182 101,321 -266,113 -291,-226 -101,-321zm3155 292c-61,-77 -181,-178 -143,-327 41,-160 193,-125 310,-85 287,98 276,387 -167,412zm-2374 -409c114,-19 125,-37 214,28 360,265 -98,361 -191,301 -62,-38 -30,12 -56,-78 -21,-75 14,-129 33,-251zm1073 -198c353,-102 651,273 532,434 -156,213 -516,247 -699,11 -125,-164 27,-405 167,-445zm10391 5051c-85,-29 -53,-6 -91,-70 -71,43 -86,81 -218,95l-686 6c-6,-1 -56,-5 -61,-6 -63,-18 -33,-2 -66,-38 91,-83 335,-30 603,-59 170,-19 345,30 406,-24 -79,-115 -100,-28 -260,-20 -177,8 -711,45 -853,-11 43,-103 93,-76 212,-72 214,6 411,-37 761,-30 -19,-109 -21,-81 -82,-152l-70 -93c-3,-3 -7,-8 -9,-12 -339,-459 -69,-186 -684,-190 -139,-1 -232,28 -351,24 -3,0 -62,-5 -63,-5 -65,-16 -43,-8 -82,-39 66,-55 135,-48 224,-46 -38,-39 -15,-43 -161,-40 -72,1 -94,-7 -166,11 -59,-37 -4,0 -62,-87l-117 6c38,-57 268,-61 392,-72l-94 -41c40,-132 67,-23 104,-126l5 -26c145,-29 121,23 242,-42 65,-34 27,-27 73,1l160 129c26,71 38,9 -4,65l87 1c4,9 5,12 7,24 16,117 95,94 156,95 -23,-118 -16,-93 -89,-155 -59,-50 -54,-41 -74,-121 -55,-31 -134,-156 -188,-215 -211,-230 -407,-440 -639,-645 -76,-68 -154,-124 -219,-196 -406,-439 -892,-827 -1411,-1133 -712,-421 -575,-399 -1379,-752 -202,-89 -425,-146 -624,-226 -410,-165 -812,-297 -1224,-471 -198,-84 -444,-124 -651,-198 -109,-39 -211,-53 -322,-92 -115,-42 -956,-163 -1100,-182 -185,-24 -1396,-112 -1612,-96 -123,10 -265,8 -400,14 -401,19 -776,81 -1179,107 -685,44 -1261,283 -1905,411l-1463 461 -595 254c-270,120 -583,385 -816,448 -186,50 -118,92 -258,175 -277,162 -522,300 -775,487l-249 187c-103,79 -147,78 -244,169l-1057 950c-26,33 -25,38 -53,71 -35,42 -56,71 -105,103 -116,75 -37,0 -113,114 -58,86 -138,179 -247,148 43,90 30,-34 40,96 -83,82 -168,154 -233,247 -37,54 -45,97 -91,136 -132,111 -37,-44 -110,140l-114 25c-22,107 16,-19 26,114 -196,132 -415,576 -597,769 -111,116 -403,708 -530,856 -45,53 -19,9 -55,70 -18,31 -26,55 -49,94 -116,194 -238,315 -291,560 -42,188 -145,298 -180,377 -11,23 -13,105 -43,184l-233 596c-85,293 -196,544 -275,842 -68,252 -110,694 -196,901 -42,101 -77,84 -55,175 37,157 -69,520 -81,723 -41,687 -132,1387 -55,2105 15,143 3,294 26,470 22,177 35,325 53,506 16,153 31,342 61,496 72,373 187,756 230,1135 21,178 63,268 132,428 234,541 350,1100 613,1623 24,49 20,56 40,105 25,64 21,40 52,92 72,122 127,244 187,373 56,119 131,219 186,350 58,140 136,218 198,363 35,83 53,102 98,170l198 361c38,62 65,133 97,192 65,117 147,221 223,315l653 795c88,85 141,184 230,267 46,43 100,103 132,138l208 205c16,15 60,51 79,66 110,91 417,357 544,429 79,45 148,134 220,194 55,45 104,70 148,121 30,35 21,40 56,67 20,15 65,34 93,53l1769 1292c265,94 486,254 752,347 159,55 249,103 390,168 66,30 132,41 203,68 58,22 136,57 206,81 149,50 287,76 430,130 134,49 278,77 422,117l888 228c190,39 777,201 903,211l449 72c265,68 739,42 1037,82 268,35 731,-17 1000,-49 167,-19 383,7 543,-16 236,-35 231,-43 502,-52 245,-8 479,-44 712,-99 110,-26 143,-63 208,-81 68,-19 148,-11 235,-35 78,-22 139,-40 232,-56 134,-24 347,-54 440,-121 145,-103 228,-85 385,-153 394,-171 821,-285 1215,-462 370,-166 751,-338 1096,-557 120,-76 251,-104 374,-186 214,-142 475,-261 701,-397 118,-71 226,-147 339,-219 76,-48 256,-183 308,-251 121,-159 712,-530 885,-770 57,-80 77,-73 136,-133l632 -755c39,-46 84,-73 138,-131 55,-59 68,-91 128,-162l386 -442c70,-76 58,-92 108,-181l200 -359c270,-472 546,-937 797,-1418 125,-241 234,-531 368,-749 112,-182 341,-953 439,-1216 51,-136 74,-296 125,-435 88,-243 164,-607 222,-874l105 -969c37,-360 75,-677 74,-1045 -1,-126 6,-411 25,-535 60,-408 -79,-1076 -132,-1489 -31,-242 -37,-486 -106,-721 -25,-83 -39,-148 -56,-235l-274 -822c-46,-125 -118,-286 -155,-404l-86 -182c-33,-59 -39,-152 -71,-220 -49,-105 -111,-187 -178,-359l-244 -585c-142,-307 -81,-209 -158,-400 -35,-85 -57,-116 -102,-187l-507 -881c-37,-66 -70,-124 -109,-180 -75,-105 -186,-188 -225,-320z"/>
   <path class="fil0" d="M2401 17939c-12,-102 80,-552 92,-688 32,-360 94,-695 164,-1038 26,-127 74,-212 90,-304 47,-283 244,-997 357,-1238 75,-160 127,-416 208,-600 124,-284 223,-552 371,-808 50,-85 107,-161 157,-257 27,-53 28,-77 56,-131 151,-298 366,-583 549,-858 25,-39 42,-80 68,-118l252 -348c128,-209 478,-757 668,-927l208 -186c107,-83 270,-288 405,-401l209 -205c196,-207 492,-491 716,-672 42,-34 79,-50 124,-82 287,-211 637,-448 916,-678 216,-178 280,-180 495,-313 256,-158 452,-344 734,-447 274,-100 530,-305 822,-398 126,-40 187,-36 305,-88 97,-42 193,-71 306,-108 183,-59 423,-114 593,-193 127,-60 167,-27 298,-53 101,-21 219,-59 327,-88l1661 -329c114,-9 203,1 333,-16 229,-31 505,-51 745,-61 524,-21 1041,-50 1574,-45 559,5 608,48 1060,122 120,20 251,25 348,67 159,68 434,107 635,152 191,42 404,139 600,206 391,133 786,259 1159,435l583 225c211,73 1094,518 1332,655l261 155c67,55 12,37 106,74 180,68 807,646 999,806 47,40 54,43 92,96 37,51 -2,8 45,60 82,92 348,268 484,424 91,104 213,170 306,295 77,105 341,339 485,529l353 433c229,262 191,270 344,464l567 818c66,120 178,221 234,367 48,126 80,160 133,261 52,99 56,175 115,279 129,230 446,1038 501,1112 63,85 98,177 128,289 27,102 72,176 113,278 112,280 202,601 304,897 73,209 140,362 181,607 20,118 57,188 76,313 19,125 51,221 78,337 66,284 133,1144 136,1461 2,224 -66,138 -61,329 8,305 -30,1742 -101,1910 -69,164 -108,475 -135,673 -73,539 -195,1101 -398,1588 -145,349 -389,792 -478,1115 -96,346 -747,1557 -963,1832 -257,327 -290,520 -664,930 -71,78 -107,140 -185,209l-832 967c-55,55 -59,39 -120,89 -72,60 -113,139 -191,202l-240 173c-85,61 -126,113 -211,182 -328,265 -1029,833 -1385,997 -125,57 -140,112 -260,151 -225,74 -297,207 -491,297 -125,57 -75,-8 -279,115 -339,203 -1589,737 -1980,835 -107,26 -200,61 -299,94 -102,33 -215,56 -327,87 -164,47 -770,212 -942,236 -609,83 -1187,176 -1817,194 -259,7 -520,23 -786,21l-579 -21c-73,-7 -100,-26 -170,-38 -236,-43 -437,-47 -680,-106 -124,-30 -209,-31 -341,-53 -228,-38 -1039,-247 -1113,-244 -55,2 -18,-23 -104,-52l-335 -76c-282,-69 -961,-243 -1236,-359 -55,-24 -46,-32 -124,-61 -265,-100 -874,-332 -1038,-475 -78,-68 -105,-54 -202,-107 -176,-96 -293,-218 -456,-331l-328 -272c-50,-41 -73,-49 -122,-86 -95,-73 -132,-92 -235,-156l-685 -516c-191,-116 -774,-667 -967,-834l-150 -142c-33,-23 -25,-12 -59,-42 -44,-39 -60,-62 -105,-103 -111,-101 -188,-240 -277,-322 -206,-187 -695,-740 -836,-965l-132 -263c-208,-342 -355,-696 -554,-1039 -197,-340 -380,-707 -546,-1068 -124,-270 -455,-1161 -529,-1461 -27,-111 -40,-233 -73,-340l-150 -636c-37,-251 -90,-328 -128,-679 -13,-118 -49,-207 -60,-332 -52,-629 -147,-1244 -130,-1883 8,-269 61,-433 28,-703zm25666 434c34,-244 -46,-819 -72,-1114 -24,-272 -314,-1282 -439,-1567 -83,-189 -138,-408 -207,-600 -117,-325 -303,-844 -454,-1160 -94,-198 -185,-343 -255,-552 -38,-114 -90,-147 -143,-271 -123,-283 -256,-514 -416,-785l-629 -985c-22,-35 0,0 -27,-35 -2,-3 -7,-8 -9,-11 -79,-102 -148,-222 -237,-301 -103,-91 -159,-224 -220,-277l-35 -28c-223,-206 -537,-623 -784,-871l-425 -381c-217,-174 -383,-394 -623,-578 -152,-116 -285,-258 -427,-380 -53,-45 -52,-61 -105,-102 -115,-87 -284,-134 -382,-218 -132,-113 -355,-203 -515,-292 -163,-92 -360,-190 -546,-261 -193,-74 -369,-188 -557,-251 -221,-73 -379,-141 -580,-226 -103,-43 -191,-89 -298,-121l-588 -215c-66,-23 -87,-39 -147,-58 -232,-76 -698,-281 -900,-301 -83,-9 -102,-16 -170,-38 -215,-69 -455,-69 -681,-126l-1116 -87c-341,6 -1131,3 -1437,34 -590,59 -574,-11 -646,-5 0,0 -63,15 -68,16 -201,48 -489,81 -706,103 -229,23 -450,101 -665,142 -662,125 -1283,314 -1932,489 -297,80 -5,-67 -451,128 -225,99 -478,186 -689,305 -172,97 -330,207 -502,305 -189,108 -307,215 -488,319 -91,52 -182,87 -274,140 -65,38 -168,116 -229,164 -75,59 -147,128 -229,185l-693 507c-167,130 -300,234 -448,359l-416 391c-75,75 -141,143 -209,205 -73,66 -154,109 -223,171 -74,67 -135,152 -213,200 -122,75 -34,-24 -95,111 -49,109 -191,232 -277,325 -207,224 -430,705 -650,963 -55,65 -39,31 -90,117 -26,43 -44,68 -73,113l-478 744c-29,46 -56,79 -81,125 -24,43 -34,83 -58,129 -50,98 -122,158 -170,244 -146,263 -221,573 -360,840 -99,190 -135,410 -214,593 -86,199 -129,414 -192,615l-169 639c-62,156 -120,468 -153,653 -52,285 -188,1139 -196,1409 -6,198 9,413 -27,604 -22,121 12,785 30,898l111 1106c10,156 48,218 62,332 71,587 132,616 203,1018 117,659 435,1492 698,2117 194,463 578,1146 823,1598 102,188 220,540 330,684l824 997c152,164 455,437 586,615 90,123 108,74 229,185l202 191c144,138 294,230 439,368l909 705c181,108 309,202 474,333 66,52 136,149 213,201l744 456c271,152 557,257 838,383 87,40 170,83 275,120 566,199 2389,672 2912,730 121,13 192,58 314,78 130,21 228,55 349,60 133,6 237,15 365,33 503,68 1019,13 1518,-6 630,-23 1220,-125 1820,-210 214,-30 733,-172 976,-222 226,-47 415,-123 611,-199 104,-40 220,-56 323,-91 351,-120 527,-204 856,-345 556,-238 1050,-552 1577,-844 386,-214 612,-411 963,-652 387,-265 767,-603 1127,-900l223 -170c73,-75 117,-147 187,-227 186,-211 358,-447 549,-652l388 -418c251,-307 446,-629 654,-961 171,-272 373,-623 507,-921 30,-69 36,-57 71,-116 76,-128 184,-419 238,-568 76,-213 182,-357 252,-555 77,-216 309,-686 361,-860 32,-107 59,-202 96,-298 83,-218 117,-385 165,-643 21,-115 34,-247 58,-356 30,-141 33,-199 55,-345 16,-104 61,-197 81,-324 61,-377 63,-728 99,-1107 21,-228 110,-464 82,-688 -17,-136 4,-243 19,-368 13,-112 -14,-240 2,-352z"/>
   <path class="fil0" d="M25414 11681c-54,-86 -157,-199 -220,-289 -37,-54 -68,-79 -112,-137 -194,-256 -70,-122 -328,-417l-223 -257c-4,-3 -11,-8 -14,-10 -3,-2 -9,-7 -14,-10 20,80 15,71 74,121 73,62 66,37 89,155 -61,-1 -140,22 -156,-95 -2,-12 -3,-15 -7,-24l-87 -1c42,-56 30,6 4,-65l-160 -129c-46,-28 -8,-35 -73,-1 -121,65 -97,13 -242,42l-5 26c-37,103 -64,-6 -104,126l94 41c-124,11 -354,15 -392,72l117 -6c58,87 3,50 62,87 72,-18 94,-10 166,-11 146,-3 123,1 161,40 -89,-2 -158,-9 -224,46 39,31 17,23 82,39 1,0 60,5 63,5 119,4 212,-25 351,-24 615,4 345,-269 684,190 2,4 6,9 9,12l70 93c61,71 63,43 82,152 -350,-7 -547,36 -761,30 -119,-4 -169,-31 -212,72 142,56 676,19 853,11 160,-8 181,-95 260,20 -61,54 -236,5 -406,24 -268,29 -512,-24 -603,59 33,36 3,20 66,38 5,1 55,5 61,6l686 -6c132,-14 147,-52 218,-95 38,64 6,41 91,70z"/>
   <path class="fil0" d="M16288 27277c195,21 41,292 23,331 -81,-13 -44,-21 -126,-25 -32,86 -12,113 -105,126 -14,-21 -10,17 -34,-57 -27,-86 2,-81 2,-81 89,-25 171,14 232,-56 76,-85 9,-147 8,-238zm-214 772c23,-263 106,-177 219,-171 27,-63 18,-82 77,-116 6,11 45,-16 12,79 -28,81 -85,19 -192,101 -112,87 -120,189 60,204 59,-65 37,-40 78,-121 105,146 -181,135 -232,153 -8,18 -4,-13 -14,47 0,2 -1,49 -1,56 139,-40 169,49 295,-91 117,-131 49,-152 98,-316 61,-205 -47,-225 1,-349 45,-117 34,-199 -23,-314 -116,-235 8,-93 -86,-349 -176,-477 -640,-206 -730,-74 108,85 130,-135 318,-112 14,1 129,58 168,77 112,55 162,201 150,335 -18,194 -172,91 -273,209 -80,93 28,118 -74,156l27 -156c-174,-88 -145,-6 -98,120 93,251 -5,133 122,228 -35,87 -3,101 3,207l53 21c-6,32 -106,189 -14,249 74,49 63,0 65,-1 11,-76 -20,48 -9,-72z"/>
   <path class="fil0" d="M24952 12868c-26,-100 -59,-122 -87,-217l1004 7c3,-4 41,-29 17,-90 -18,-47 -94,-36 -119,-40l-82 -24c127,-50 53,22 91,-87l-127 -25 32 -143c1,-10 3,-13 6,-10l-66 0c-42,-68 7,-114 -142,-119 -68,-2 -162,3 -231,7 -116,7 -206,32 -273,0l-27 -15c-5,-3 -12,-6 -16,-8 -96,-50 -23,8 -146,45 -80,24 -66,-13 -120,52l82 61c-30,17 -50,-2 -17,69l39 62c42,69 38,41 41,121 -141,-18 -39,61 -187,-205 -52,-94 -161,-270 -245,-327 36,96 186,287 296,501l236 350c36,41 -16,2 41,35z"/>
   <path class="fil0" d="M21264 17346c84,124 373,221 119,597 -58,88 -117,64 -122,182l68 27c3,2 11,6 14,7 3,2 10,4 14,7 -28,181 52,90 -21,331 -30,100 19,132 -238,217 -47,386 122,170 -113,548 -105,14 -148,-8 -210,42 -49,69 29,38 1,106 -93,228 -62,333 -267,388 -264,72 -91,263 -245,338 -405,197 -125,168 -284,295 -53,42 -168,46 -108,132 62,38 152,-20 197,-64 74,-71 58,-120 67,-242 97,-8 210,-13 259,-73 47,-57 70,-192 56,-256 148,-20 214,-75 297,-157 188,-183 -16,-308 184,-397 81,-36 184,-35 249,-163 47,-93 50,-230 30,-318l-39 -69c-4,-3 -11,-8 -13,-11 -3,-2 -10,-6 -14,-10 146,-63 279,-51 339,-219 59,-166 -24,-348 -89,-457 113,-65 83,-70 132,-204 63,-170 97,-379 -52,-537 -13,-14 -91,-72 -93,-73 -60,-26 -79,-8 -118,33z"/>
   <path class="fil0" d="M20963 16970c0,69 -16,97 -40,145l-120 -9c2,-177 -28,-156 160,-136zm-82 -646c5,4 12,2 14,8 11,34 1,2 27,15 117,62 193,121 125,308l82 106c49,76 113,95 135,238 13,79 -4,77 -51,105 -31,-60 -1,-113 -49,-194 -27,-46 -89,-87 -148,-99 -358,-76 -487,643 52,465 121,-39 51,-77 165,-106 24,40 -8,51 21,100 289,-84 157,-503 111,-538l-206 -70c-5,-1 -12,-4 -17,-7 36,-38 171,-100 26,-328 -29,-45 -94,-73 -158,-88 -78,-18 -97,22 -129,85z"/>
   <path class="fil0" d="M20867 17649c33,-41 74,-97 118,-124 71,55 160,83 103,189 -90,48 -169,-8 -221,-65zm138 -253c-117,34 -338,217 -294,362 43,138 70,128 126,206 38,56 -14,44 93,69 270,65 495,-142 472,-384 -17,-172 -220,-303 -397,-253z"/>
   <path class="fil0" d="M10996 32068c69,52 120,88 221,104 181,29 101,99 247,89 67,-4 71,-23 110,-56 47,-40 50,-33 98,-68 154,-112 132,-436 -394,-431 -131,1 -153,46 -206,120 -60,83 -85,115 -76,242z"/>
   <path class="fil0" d="M9590 31296c28,-118 53,-226 -24,-303 -85,-85 -160,-83 -281,-110 -173,-39 -178,-60 -287,50 -97,98 -130,78 -118,272 172,93 102,78 213,196 194,29 339,-77 497,-105z"/>
   <path class="fil0" d="M1743 20962c-216,89 -279,177 -184,364 254,497 420,221 515,115 118,-130 -61,-315 -136,-392 -60,-63 -89,-131 -195,-87z"/>
   <path class="fil0" d="M19271 31868c144,91 66,90 159,147 144,89 523,19 514,-336 -4,-162 -251,-224 -374,-129 -82,63 -125,46 -205,105 -97,72 -64,104 -94,213z"/>
   <path class="fil0" d="M26283 27004c-68,-173 -101,-127 -156,-151 -79,-35 -96,-110 -219,-81 -139,34 -111,36 -184,127 -69,87 -95,94 -45,256 42,138 107,386 305,192 61,-60 266,-283 299,-343z"/>
   <path class="fil0" d="M2698 13018c-96,54 -85,52 -94,201 -5,93 -29,163 -6,258 102,416 549,6 496,-313 -41,-248 -392,-148 -396,-146z"/>
   <path class="fil0" d="M14804 32548c83,65 240,233 407,148 21,-11 229,-197 147,-397 -143,-346 -528,-166 -554,249z"/>
   <path class="fil0" d="M2967 25410c23,29 69,68 92,106 37,63 24,96 67,162 64,100 80,69 305,56 221,-285 156,-292 111,-367l-34 -70c-23,-34 4,-20 -59,-46 -462,-190 -377,-21 -482,159z"/>
   <path class="fil0" d="M9899 31640c3,9 129,139 137,145 69,47 131,56 228,59 275,7 266,-127 232,-270 -34,-141 -13,-100 -130,-159 -90,-45 -66,-87 -198,-78 -170,12 -365,71 -269,303z"/>
   <path class="fil0" d="M16554 32261c1,-75 59,-31 -40,-80 -37,-17 -15,0 -58,-27 -11,-6 -27,-20 -36,-27 -75,-53 -111,-54 -197,-14 -332,152 -263,720 191,502 263,-125 140,-350 140,-354z"/>
   <path class="fil0" d="M17692 32344c65,-158 28,-345 -156,-378 -372,-66 -501,597 -232,567 187,-20 320,-25 388,-189z"/>
   <path class="fil0" d="M8401 30358c-624,-66 -566,364 -335,457 485,193 532,-214 335,-457z"/>
   <path class="fil0" d="M20833 18397c14,-109 72,-147 192,-151 -30,124 -55,174 -192,151zm75 -269c-74,34 -284,2 -191,347 95,353 715,172 570,-177 -48,-114 -34,-99 -153,-134 -79,-23 -153,-70 -226,-36z"/>
   <path class="fil0" d="M6937 29738c-15,131 57,413 249,446 102,17 208,-17 272,-68 73,-57 98,-117 86,-245 -75,-38 -103,-18 -144,-86 -45,-74 3,-93 -128,-117 -149,-28 -247,3 -335,70z"/>
   <path class="fil0" d="M20443 16285c60,-22 375,-11 286,-262 -29,-82 -45,-33 -81,-117 230,20 144,180 133,353 95,5 132,-20 179,-80 -22,-99 -8,6 -29,-71 -26,-95 -9,-221 -92,-279 -33,-24 -117,-54 -147,-44 -145,49 1,99 -137,101 52,-43 109,-125 135,-203 -2,-58 -248,-311 -464,-207 99,65 156,53 219,40 13,157 30,76 77,174 30,60 -8,101 5,218 -257,116 -87,309 -84,377z"/>
   <path class="fil0" d="M12883 31982c-168,-12 -345,34 -415,143 -97,149 58,297 173,346 306,129 481,-227 375,-332 -156,-152 -53,-64 -133,-157z"/>
   <path class="fil0" d="M20532 6658c-14,255 103,228 289,288 70,22 137,69 214,52 207,-45 188,-278 60,-345 -59,-32 -36,1 -99,-47 -163,-126 -188,-198 -464,52z"/>
   <path class="fil0" d="M18787 32095c69,-144 -5,-363 -200,-333 -19,3 -304,132 -341,223 -53,135 130,328 209,326 158,-6 264,-76 332,-216z"/>
   <path class="fil0" d="M27118 24710c-99,48 -72,32 -119,151 -102,253 -28,546 271,418 299,-128 125,-703 -152,-569z"/>
   <path class="fil0" d="M22866 7756c47,63 47,20 105,83 -18,40 -279,219 34,379 166,86 305,179 478,49 19,-144 -130,-351 -192,-374 -114,-42 -97,-5 -218,-71 -62,-33 -149,-93 -207,-66z"/>
   <path class="fil0" d="M5345 28312c-12,158 3,366 124,403 174,51 348,-54 397,-150 52,-102 -63,-598 -521,-253z"/>
   <path class="fil0" d="M20900 31330c76,-134 -103,-269 -246,-269 -200,1 -237,84 -276,260 -45,197 52,298 246,269 189,-29 203,-131 276,-260z"/>
   <path class="fil0" d="M21773 30483c-154,120 -180,42 -296,283 -32,67 -54,146 25,189 54,29 154,75 217,55 407,-122 395,-663 69,-535 -4,1 -10,4 -15,8z"/>
   <path class="fil0" d="M1800 16238c-61,18 -89,41 -155,118 -50,58 -123,270 4,409 110,120 214,120 335,-28 15,-19 116,-350 11,-443 -52,-46 -122,-78 -195,-56z"/>
   <path class="fil0" d="M20737 18968c-214,99 -203,-174 28,-132l-28 132zm-96 -241c-74,38 -127,56 -145,148 -18,91 -11,184 27,251 40,68 66,112 165,108 45,-1 204,2 232,-15 13,-9 130,-153 132,-157 10,-22 34,-310 -205,-331 -113,-10 -120,-48 -206,-4z"/>
   <path class="fil0" d="M3797 26344c-61,28 -93,64 -149,130 -188,222 319,553 509,218 64,-113 38,-97 -12,-195 -42,-83 -26,-115 -120,-143 -65,-19 -175,-35 -228,-10z"/>
   <path class="fil0" d="M1922 22115c-131,47 -170,114 -120,290 14,48 3,17 29,55 40,58 147,273 341,156 297,-180 60,-612 -250,-501z"/>
   <path class="fil0" d="M4978 27666c-27,-40 -54,-62 -90,-109 -142,-183 100,-47 -218,-239 -45,-27 39,-28 -73,-22 -26,1 -71,20 -92,34 -95,60 -113,219 -75,333 69,206 466,289 548,3z"/>
   <path class="fil0" d="M10620 5892c-162,44 -283,68 -315,231 -33,174 49,362 238,299 51,-17 244,-139 281,-258 48,-150 -84,-304 -204,-272z"/>
   <path class="fil0" d="M22829 29816c-204,52 -221,65 -288,256 -49,136 103,260 265,250 323,-21 389,-599 23,-506z"/>
   <path class="fil0" d="M15276 5167c-132,33 -108,-10 -179,94 -148,214 -166,428 123,472 347,53 316,-631 56,-566z"/>
   <path class="fil0" d="M20490 18567c-163,82 -119,155 -137,237 -30,129 -170,104 -31,271 -65,39 -36,42 -78,89 -144,160 -96,11 -206,331 -51,150 -105,92 -175,177 -19,23 -15,24 -33,51 -77,110 -37,18 -102,168 -20,46 -54,22 -105,61 -23,18 -40,49 -78,85 -79,75 -86,74 -96,223 111,-18 78,-6 95,-68 62,-235 241,-168 282,-226l5 -82c19,-184 188,-92 244,-167 17,-39 10,-161 36,-231 25,-70 71,-174 102,-226 63,9 168,62 200,-6 36,-76 -118,-49 -48,-179 30,-56 50,20 35,-98l-4 -40c0,-4 1,-10 2,-14 10,-85 9,11 13,-70 4,-68 -21,-73 20,-143 66,-116 111,-9 222,-102 -7,-86 -2,-19 -26,-63 -2,-4 -6,-9 -8,-13 -64,-118 5,-63 -69,-134 -88,38 -63,56 -60,169z"/>
   <path class="fil0" d="M1495 19823c-119,62 -241,159 -145,324 168,286 565,185 504,-202 -18,-113 -245,-181 -359,-122z"/>
   <path class="fil0" d="M26538 25784c-90,44 -67,68 -114,159 -66,128 -89,302 29,395 72,57 114,28 197,-3 306,-114 192,-699 -112,-551z"/>
   <path class="fil0" d="M28072 15086c-67,32 -122,39 -125,140 -7,209 -23,130 -24,209 0,153 186,219 355,171 224,-62 149,-166 84,-305 -16,-35 -75,-317 -290,-215z"/>
   <path class="fil0" d="M13603 32426c0,50 69,132 106,177 130,155 499,74 438,-211 -7,-36 -155,-276 -285,-239 -91,26 -258,182 -259,273z"/>
   <path class="fil0" d="M27937 23919c-55,-27 -343,-305 -514,43 -95,194 195,448 345,326 89,-72 166,-203 169,-369z"/>
   <path class="fil0" d="M27402 13282c-119,60 -161,152 -116,324 67,256 648,177 471,-204 -14,-30 -77,-115 -117,-129 -69,-24 -192,-14 -238,9z"/>
   <path class="fil0" d="M14279 18565c-55,-92 -23,-134 92,-151 -1,152 -3,109 -30,151l-62 0zm349 -129c-28,-19 -128,-108 -136,-112 -21,-11 -195,-48 -213,-48 -104,154 -126,112 -148,241 -58,341 179,360 411,243 120,-61 98,-163 86,-324z"/>
   <path class="fil0" d="M27988 22623c-225,170 -101,697 199,510 355,-222 -11,-652 -199,-510z"/>
   <path class="fil0" d="M15852 26885c112,3 121,102 -3,119 -13,-53 -26,-64 3,-119zm-147 118c-7,87 5,89 -15,172 -19,74 -34,41 17,118 4,-3 8,-9 10,-11 1,-2 7,-8 9,-11l45 -57c171,9 129,73 299,-34 79,-50 142,-134 96,-263 -28,-80 -131,-168 -251,-159 -131,10 -131,111 -208,185 -86,-39 -11,-55 -78,-76 -25,43 -57,106 -55,173 6,225 28,173 50,179 5,-8 -55,-49 67,-132 -76,-115 -53,-22 -49,-69l63 -15z"/>
   <path class="fil0" d="M3293 11958c-237,134 -168,627 157,552 154,-35 179,-479 60,-544 -63,-34 -158,-42 -217,-8z"/>
   <path class="fil0" d="M2381 14089c-163,61 -201,115 -160,347 20,119 145,245 300,167 57,-29 68,-74 117,-131 56,-64 76,-90 27,-194 -48,-104 -133,-247 -284,-189z"/>
   <path class="fil0" d="M4763 9972c-115,59 -212,117 -214,289 -2,211 159,169 298,178 190,12 234,-75 188,-272 -32,-133 -100,-284 -272,-195z"/>
   <path class="fil0" d="M6277 29034c-102,39 -80,13 -138,115 -79,137 -62,173 99,329 105,102 158,49 199,13 3,-3 7,-8 10,-12 77,-74 181,-144 162,-287 -22,-165 -168,-222 -332,-158z"/>
   <path class="fil0" d="M11593 6114c175,8 286,-24 364,-141 14,-21 146,-352 18,-377 -100,-20 -324,72 -371,126 -42,47 -60,128 -69,201 -17,128 10,121 58,191z"/>
   <path class="fil0" d="M25278 27589c-99,64 -253,58 -221,279 1,3 48,174 54,186 28,59 77,114 153,105 320,-39 244,-718 14,-570z"/>
   <path class="fil0" d="M21714 7421c236,93 143,101 258,133 110,31 149,-10 313,-66l-80 -229c-23,-88 -80,-128 -168,-146 -248,-50 -329,90 -323,308z"/>
   <path class="fil0" d="M18877 5662c-562,190 -233,531 -91,515 113,-12 275,-114 286,-225 10,-98 -98,-322 -195,-290z"/>
   <path class="fil0" d="M28618 21462c-159,-6 -282,-33 -360,85 -80,119 -15,310 98,361 108,49 302,73 336,-69 16,-66 -20,-87 -18,-185 3,-106 -18,-114 -56,-192z"/>
   <path class="fil0" d="M24302 26528c6,-4 13,-8 19,-10 5,-3 12,-7 18,-10 142,-66 96,3 161,-98 -117,-20 -169,-24 -287,-27 -125,-3 -183,-60 -194,62 93,17 53,-21 149,24l37 29c-109,50 -89,16 -203,29 -107,12 -53,-31 -92,44 -41,77 -37,17 14,40 -146,4 -67,-16 -104,82 206,0 444,30 645,-16 -4,-5 -11,-10 -15,-13 -4,-2 -10,-8 -15,-11 -5,-3 -11,-7 -16,-9l-66 -13c51,-53 -97,-23 95,-41l280 23c-5,5 -13,7 -19,10 -6,2 -13,6 -20,9 -145,53 -27,-29 -135,41 80,81 103,13 240,5 127,-7 117,20 223,41l66 -150c-161,26 -430,0 -612,0 -118,1 -127,-7 -169,-41z"/>
   <path class="fil0" d="M2279 23091c-322,99 -198,577 118,517 133,-25 281,-301 40,-450 -67,-42 -89,-88 -158,-67z"/>
   <path class="fil0" d="M1433 17918c136,61 287,119 379,34 142,-131 -4,-205 40,-386 -116,-69 -191,-148 -324,-42 -98,78 -115,231 -95,394z"/>
   <path class="fil0" d="M2213 15678l-18 -98c169,-152 132,-318 35,-390 -78,-57 -216,-50 -286,-4 -71,47 -101,278 -53,364 51,92 199,191 322,128z"/>
   <path class="fil0" d="M14035 5188c-89,17 -115,30 -151,102 -115,234 130,453 261,387 411,-206 90,-529 -110,-489z"/>
   <path class="fil0" d="M26849 12144c-148,60 -203,226 -93,313 139,110 391,261 487,4 65,-173 -259,-372 -394,-317z"/>
   <path class="fil0" d="M17495 5907c119,78 260,38 384,-16 61,-168 98,-447 -143,-451 -232,-3 -271,250 -241,467z"/>
   <path class="fil0" d="M19869 6035c-98,16 -136,-11 -205,48 -107,90 -95,230 -12,337 96,122 716,-12 383,-322 -49,-45 -105,-73 -166,-63z"/>
   <path class="fil0" d="M9527 6372c-434,143 -243,528 11,492 267,-38 291,-592 -11,-492z"/>
   <path class="fil0" d="M12814 5419c-207,112 -209,613 179,428 93,-45 203,-158 155,-314 -29,-97 -225,-173 -334,-114z"/>
   <path class="fil0" d="M23786 29118c-25,18 -100,92 -127,125 -132,162 -129,437 181,346 359,-104 166,-445 135,-465 -52,-34 -148,-35 -189,-6z"/>
   <path class="fil0" d="M8462 6965c-74,14 -206,3 -273,227 -46,157 84,237 234,232 160,-6 89,-79 206,-167 49,-37 37,11 60,-63 59,-185 -86,-255 -227,-229z"/>
   <path class="fil0" d="M7394 7610c-215,72 -269,317 -135,461 117,126 368,-7 389,-258 10,-130 -130,-244 -254,-203z"/>
   <path class="fil0" d="M2816 24619c39,-70 147,-271 149,-353 5,-267 -585,-186 -446,133 67,156 96,220 297,220z"/>
   <path class="fil0" d="M1902 18829c-255,-349 -563,-121 -509,116 51,224 390,215 447,50 25,-73 -7,-57 28,-120l34 -46z"/>
   <path class="fil0" d="M28684 16993c-101,27 45,26 -184,60 -250,38 -102,410 22,468 212,99 407,-145 162,-528z"/>
   <path class="fil0" d="M28161 16070c-19,98 -8,111 -3,199 7,106 -41,105 51,156 443,245 488,-225 338,-315 -130,-78 -217,-73 -386,-40z"/>
   <path class="fil0" d="M6446 8338c-263,129 -248,581 122,439 94,-36 211,-147 174,-290 -23,-89 -200,-196 -296,-149z"/>
   <path class="fil0" d="M25745 10569c72,-77 166,-245 80,-346 -86,-101 -232,-110 -393,-132 -69,161 -125,165 -4,321 47,61 44,81 112,113 5,1 85,32 91,33 59,16 54,13 114,11z"/>
   <path class="fil0" d="M5525 9146c-177,238 -46,564 271,431 144,-60 150,-169 72,-304 -62,-107 -178,-148 -343,-127z"/>
   <path class="fil0" d="M3894 11475c132,21 292,-9 328,-114 52,-153 -18,-279 -71,-368 -161,-19 -240,43 -322,137 -100,114 6,259 65,345z"/>
   <path class="fil0" d="M27844 14214c-109,27 -324,37 -226,194 198,316 532,265 511,-29 -4,-55 -49,-136 -89,-162 -78,-51 -124,-20 -196,-3z"/>
   <path class="fil0" d="M14370 14807c-21,-95 1,-146 95,-157 51,44 49,36 59,121 -51,32 -78,51 -154,36zm1 223c144,11 175,10 263,-68 50,-45 133,-107 119,-204 -13,-84 -94,-158 -143,-192 -98,-67 -150,-31 -269,-17 -43,113 -173,245 30,481z"/>
   <path class="fil0" d="M26325 11125c-173,47 -126,110 -134,191 -6,70 -69,133 62,237 56,44 109,49 176,33 324,-81 172,-536 -104,-461z"/>
   <path class="fil0" d="M19793 20322l-88 -3c7,-107 71,-127 88,3zm137 -168c-223,-49 -331,-45 -354,284l-143 39c45,103 40,-1 78,111 -59,79 -50,-11 -108,-26 -89,-23 -24,-8 -49,11 -111,112 319,333 328,-67 57,-10 193,-58 223,-88 70,-73 19,-155 25,-264z"/>
   <path class="fil0" d="M20302 19574c-28,-62 -6,-81 23,-126l116 7c6,121 12,184 -139,119zm245 208c20,-115 51,-72 96,-160 74,-147 -31,-278 -168,-326 -118,-41 -419,226 -277,403 128,161 255,10 349,83z"/>
   <path class="fil0" d="M24473 28374c-60,32 -85,35 -87,139 -2,115 1,294 139,310 163,20 232,-45 294,-182 41,-90 26,-87 -29,-143 -63,-65 -179,-199 -317,-124z"/>
   <path class="fil0" d="M28517 20148c-94,33 -82,81 -111,184 -3,11 -13,42 -14,43 -21,107 137,333 253,297 292,-92 108,-606 -128,-524z"/>
   <path class="fil0" d="M28619 18578c355,9 374,-441 105,-475 -141,-18 -264,115 -277,196 -13,81 -12,0 70,138 36,60 55,82 102,141z"/>
   <path class="fil0" d="M16454 5290c-282,86 -350,523 75,388 368,-117 146,-455 -75,-388z"/>
   <path class="fil0" d="M14287 19151c-66,-9 -56,-24 -67,-75 37,-37 96,-6 142,22 -11,22 -13,62 -75,53zm178 -254c-519,8 -326,387 -195,439 140,54 273,-33 308,-127 51,-140 -48,-243 -113,-312z"/>
   <path class="fil0" d="M20814 16511c-79,74 -132,14 -75,-78 70,29 49,8 75,78zm-81 -172c-127,41 -175,139 -156,292 30,251 509,173 412,-124 -26,-78 -128,-210 -256,-168z"/>
   <path class="fil0" d="M23988 8644c-273,97 -176,209 -20,332 62,49 68,48 145,27 329,-91 185,-469 -125,-359z"/>
   <path class="fil0" d="M14362 19519c49,44 42,56 22,118l-69 -8 -8 -90 55 -20zm-146 324c672,18 264,-680 -24,-336 -112,134 3,295 24,336z"/>
   <path class="fil0" d="M15094 26758c127,-70 274,72 312,-96 -47,-45 -178,-101 -257,-115 -304,-54 -401,666 -157,633 1,-9 -17,-304 102,-422z"/>
   <path class="fil0" d="M28666 19158c-320,145 -187,472 51,407 91,-25 170,-140 174,-241 5,-121 -100,-222 -225,-166z"/>
   <path class="fil0" d="M13894 18720c42,18 73,21 113,46 13,155 -144,327 17,505l22 23c2,2 7,7 11,11 -44,85 -147,596 78,476 -29,-79 -62,-17 -64,-165 -2,-178 91,-230 31,-360 -27,-59 -116,-56 -9,-367 24,-72 25,-42 -8,-114 -65,-140 2,-311 -161,-315 -9,18 -18,199 -30,260z"/>
   <path class="fil0" d="M24711 9369c-202,102 -125,477 166,353 240,-103 91,-483 -166,-353z"/>
   <path class="fil0" d="M14433 13130c13,-107 111,-98 124,-68 18,45 -35,132 -124,68zm-106 -55c0,4 35,165 36,166 46,114 334,131 362,-95 33,-281 -392,-313 -398,-71z"/>
   <path class="fil0" d="M19930 20154c200,36 327,-24 351,-228 -100,-91 -55,-108 -147,-122 -322,-48 -198,271 -204,350z"/>
   <path class="fil0" d="M14485 12552c24,-13 78,-19 85,47 9,84 -43,85 -87,66 -45,-20 -22,-7 -46,-45 18,-53 -2,-42 48,-68zm207 -58c-99,-43 -211,-59 -274,36 -59,87 -84,189 -29,269 120,175 418,45 303,-305z"/>
   <path class="fil0" d="M20128 15931c50,45 27,52 89,75 83,-51 41,-58 124,-98 100,-47 87,-11 156,-101 -46,-274 -281,-239 -320,-39 -37,187 -38,85 -49,163z"/>
   <path class="fil0" d="M13996 20174c234,220 -53,175 138,497 -34,76 -79,101 -56,199 93,-6 102,-68 123,-158l-59 -112c-121,-235 -5,-121 27,-267 16,-74 -34,-94 -36,-180 -2,-108 76,-247 3,-329 -105,38 -67,77 -80,159 -9,56 -45,92 -60,191z"/>
   <path class="fil0" d="M20530 17108c91,-7 45,11 77,-85 16,-48 30,-70 42,-119 -133,-114 -14,-91 -111,-215 -24,-31 -55,-65 -98,-70 -46,-5 -81,20 -58,60 9,15 82,50 99,103l13 75c25,87 14,213 36,251z"/>
   <path class="fil0" d="M19484 20851c92,52 172,23 244,-30 73,-55 110,-107 89,-243 -115,6 -70,89 -142,148 -84,69 -186,-13 -191,125z"/>
   <path class="fil0" d="M14995 31081c109,174 292,23 195,-141 -125,-13 -161,54 -195,141z"/>
   <path class="fil0" d="M15071 6984l217 4 61 -78c-37,-95 -87,-103 -182,-66 -78,31 -116,55 -96,140z"/>
   <path class="fil0" d="M14123 14731c101,-115 9,-51 47,-149 35,-88 68,-31 83,-137 -114,-11 -62,-11 -106,49 -54,72 -144,161 -75,336 98,-6 95,-34 51,-99z"/>
   <path class="fil0" d="M19212 20666c155,14 38,-66 99,-179 77,-142 132,-49 149,-198 -262,27 -202,175 -220,251 -13,56 -27,58 -28,126z"/>
   <path class="fil0" d="M13967 18390c79,-13 139,-65 172,-120 10,-51 -21,-46 -63,-144 -123,7 -64,48 -67,101 -3,55 -34,67 -42,163z"/>
   <path class="fil0" d="M20443 16285l-101 -12c-11,-27 -5,2 -19,-53 -20,-81 5,-74 -42,-135 -76,26 -57,88 -53,177l90 27 -28 62c124,34 81,-6 153,-66z"/>
   <path class="fil0" d="M14196 13502c72,-50 14,-41 87,-93 61,-42 56,8 71,-81 -130,-90 -207,101 -216,141l58 33z"/>
   <path class="fil0" d="M14133 6993c-29,-36 -52,-87 -110,-53 -43,26 -25,72 -10,112 92,67 213,58 120,-59z"/>
   <path class="fil0" d="M14122 30904c-110,-24 -210,44 -134,116 76,71 126,-56 134,-116z"/>
   <path class="fil0" d="M16138 31003c86,31 135,5 143,-88 -37,-21 -54,-35 -98,-20 -110,37 -45,107 -45,108z"/>
   <path class="fil0" d="M20452 18245l51 125c62,-15 42,-10 84,-41 -5,-17 -56,-149 -59,-155 -60,22 -42,15 -76,71z"/>
   <path class="fil0" d="M13164 7154c69,28 175,21 103,-83 -56,-79 -119,-29 -103,83z"/>
   <path class="fil0" d="M20573 17291c53,-16 38,-12 74,-39 -12,-72 2,-89 -55,-124 -83,36 -76,92 -19,163z"/>
   <path class="fil0" d="M16333 7035c63,40 121,46 154,-45 -70,-66 -137,-56 -154,45z"/>
   <path class="fil0" d="M20559 18118c62,-10 137,-106 146,-149l-28 -29c-64,30 -117,83 -118,178z"/>
   <path class="fil0" d="M12961 30771c26,92 6,109 134,57 -5,-117 -47,-111 -134,-57z"/>
   <path class="fil0" d="M17321 7159c66,20 85,38 129,-23l8 -22c-59,-65 -139,-52 -137,45z"/>
   <path class="fil0" d="M14219 12581l48 25c33,-35 63,-81 63,-140 -89,-16 -97,30 -111,115z"/>
   <path class="fil0" d="M17088 30874c54,54 53,49 140,30 -26,-111 -111,-112 -140,-30z"/>
   <path class="fil0" d="M13935 18036c106,26 128,-4 90,-90 -83,2 -96,1 -90,90z"/>
   <path class="fil0" d="M14134 13662c103,-7 92,-63 42,-116 -128,56 -43,113 -42,116z"/>
   <path class="fil0" d="M12287 7387c75,35 89,27 99,-57 -45,-34 -23,-45 -102,-10l3 67z"/>
   <path class="fil0" d="M20521 17782c89,18 92,-28 92,-115 -84,17 -96,35 -92,115z"/>
   <path class="fil0" d="M14156 14282c-11,236 236,-4 0,0z"/>
   <path class="fil0" d="M20617 17483c91,-2 93,-11 97,-101 -83,5 -97,17 -97,101z"/>
   <path class="fil0" d="M14174 12744c49,25 135,23 95,-52 -23,-44 -92,-38 -95,52z"/>
   <path class="fil0" d="M20520 17597l76 5c32,-65 19,-24 21,-99 -71,15 -90,16 -97,94z"/>
   <path class="fil0" d="M12037 30538c-13,-109 -105,-94 -112,15l112 -15z"/>
   <path class="fil0" d="M18007 30706c86,-2 53,10 99,-39 -1,-76 -98,-79 -99,39z"/>
  </g>
 </g>
</svg>
